<svg xmlns="http://www.w3.org/2000/svg" width="306.25" height="306.25" viewBox="0 0 306.24826 306.24827"><style>.style0{fill: none;stroke: #323232;stroke-width: 8.83399391;stroke-linecap: square;}.style1{font-size: 32.82439423px;line-height: 125%;font-family: Arvo;-inkscape-font-specification: Arvo;text-align: start;letter-spacing: 0px;word-spacing: 0px;writing-mode: lr-tb;text-anchor: start;fill: #323232;}.style2{font-size: 32.82439423px;line-height: 125%;font-family: Arvo;-inkscape-font-specification: Arvo;text-align: start;writing-mode: lr-tb;text-anchor: start;}.style3{font-weight: bold;font-size: 40px;line-height: 125%;font-family: Arvo;-inkscape-font-specification: &apos;Arvo Bold&apos;;text-align: start;letter-spacing: 0px;word-spacing: 0px;writing-mode: lr-tb;text-anchor: start;fill: #323232;}.style4{font-size: 40px;line-height: 125%;font-family: Arvo;-inkscape-font-specification: Arvo;text-align: start;writing-mode: lr-tb;text-anchor: start;}</style><path d="M4.413 4.413h297.41v297.41H4.413z" class="style0"/><g class="style1"><path d="M40.087 224.13h14.955q2.483 0 4.57.656 2.1.64 3.61 1.904 1.537 1.25 2.36 3.122.852 1.873.852 4.326 0 2.025-.822 3.837-.838 1.782-2.345 3.123-1.508 1.34-3.64 2.117-2.102.776-4.69.776H48.37v12.932h3.716v4.203H40.07v-4.203h3.52v-28.587h-3.52v-4.22zm8513.063 8654.02v11.65h6.67q1.387 0 2.544-.366 1.173-.396 1.996-1.127.853-.73 1.325-1.827.487-1.097.487-2.544 0-2.74-1.66-4.25-1.66-1.537-5.3-1.537h-6.046zM71.14 224.13h11.82v4.22h-3.52v28.587h3.52v4.203H71.14v-4.203h3.52V228.35h-3.52v-4.22zM109.672 224.13h12.017v4.22h-2.743l-10.006 13.89 10.45 14.697h2.3v4.203H109.67v-4.203h4.524l-7.905-11.01-7.95 11.01h4.327v4.203H90.65v-4.203h2.422l10.54-14.712-9.962-13.86h-3v-4.218h12.017v4.218h-3.564l7.204 10.128 7.28-10.128h-3.884v-4.218zM126.593 224.13h12.016v4.22h-3.717v28.587h12.763q.396 0 .777-.168.396-.2.7-.488.32-.29.518-.655.2-.396.2-.777v-4.66h4.644v10.966h-27.9v-4.204h3.517v-28.587h-3.517v-4.218zM177.202 234.198q0-2.147-.776-3.228-.777-1.082-1.737-1.63-.93-.58-2.057-.883-1.127-.32-2.24-.32-1.857 0-3.243.442-1.385.41-2.315 1.14-.898.732-1.37 1.707-.457.974-.457 2.056 0 1.614.563 2.62.58.974 1.463 1.583.884.58 1.935.93 1.08.334 2.056.684l4.934 1.615q2.224.7 3.9 1.614 1.705.898 2.862 2.147 1.143 1.218 1.737 2.832.61 1.614.61 3.73 0 2.3-.945 4.25-.93 1.95-2.62 3.396-1.69 1.447-4.02 2.27-2.316.807-5.103.807-2.864 0-4.89-.655-2.025-.64-3.41-1.706-1.372-1.096-2.194-2.482-.838-1.386-1.295-2.864h-1.857v-4.203h6.153q0 2.71.564 3.838.578 1.128 1.614 1.874 1.02.73 2.437 1.127 1.417.367 3.123.367 1.66 0 2.985-.396 1.34-.395 2.27-1.126.96-.762 1.446-1.813.518-1.08.518-2.42 0-1.493-.64-2.513-.61-1.05-1.584-1.782-.974-.73-2.147-1.203-1.14-.457-2.223-.808l-5.345-1.507q-1.752-.533-3.23-1.37-1.446-.84-2.482-2.027-1.02-1.203-1.584-2.787-.563-1.614-.563-3.716 0-2.117.822-3.975.823-1.858 2.437-3.244 1.614-1.386 3.93-2.178 2.345-.807 5.345-.807 1.98 0 3.64.457 1.69.457 3.03 1.325 1.372.822 2.392 2.026 1.05 1.173 1.75 2.59h1.828v4.203h-5.985zM186.66 258.186q0-.64.244-1.203.274-.58.7-1.006.442-.44 1.006-.685.578-.274 1.248-.274.64 0 1.204.274.578.244 1.005.685.44.412.685 1.006.274.563.274 1.203 0 .655-.274 1.25-.244.577-.685 1.05-.41.44-1.005.685-.564.275-1.204.275-.655 0-1.248-.274-.564-.243-1.006-.685-.44-.456-.7-1.05-.244-.58-.244-1.25zM198.204 224.13h11.986v4.22h-3.777v17.24q0 3.107.686 5.3.7 2.178 1.933 3.564 1.25 1.37 2.924 1.995 1.706.64 3.73.64 2.103 0 3.855-.564 1.75-.564 3-1.874 1.264-1.34 1.95-3.533.7-2.225.7-5.514v-17.24h-4.006v-4.22h11.986v4.22h-3.29v16.69q0 4.007-1.126 7.1-1.097 3.106-3.03 5.192-1.935 2.102-4.54 3.198-2.604 1.082-5.62 1.082-2.924 0-5.497-1.082-2.545-1.08-4.45-3.152-1.872-2.072-2.984-5.057-1.08-3-1.08-6.853V228.35h-3.397v-4.22zM255.79 234.198q0-2.147-.778-3.228-.776-1.082-1.736-1.63-.93-.58-2.056-.883-1.127-.32-2.24-.32-1.857 0-3.243.442-1.386.41-2.315 1.14-.898.732-1.37 1.707-.457.974-.457 2.056 0 1.614.563 2.62.58.974 1.462 1.583.884.58 1.934.93 1.082.334 2.057.684l4.935 1.615q2.224.7 3.9 1.614 1.705.898 2.862 2.147 1.142 1.218 1.736 2.832.61 1.614.61 3.73 0 2.3-.96 4.25-.93 1.95-2.604 3.396-1.692 1.447-4.022 2.27-2.315.807-5.102.807-2.863 0-4.89-.655-2.024-.64-3.41-1.706-1.37-1.096-2.193-2.482-.823-1.386-1.295-2.864h-1.858v-4.203h6.153q0 2.71.563 3.838.58 1.128 1.615 1.874 1.02.73 2.438 1.127 1.416.367 3.122.367 1.66 0 2.985-.396 1.34-.395 2.27-1.126.96-.762 1.446-1.813.52-1.08.52-2.42 0-1.493-.64-2.513-.61-1.05-1.585-1.782-.975-.73-2.147-1.203-1.143-.457-2.224-.808l-5.346-1.507q-1.75-.533-3.228-1.37-1.447-.84-2.483-2.027-1.02-1.203-1.584-2.787-.563-1.614-.563-3.716 0-2.117.837-3.975.823-1.858 2.437-3.244 1.615-1.386 3.93-2.178 2.345-.807 5.345-.807 1.98 0 3.64.457 1.69.457 3.03 1.325 1.37.822 2.39 2.026 1.052 1.173 1.753 2.59h1.827v4.203h-5.985z" class="style2"/></g><path d="M32.406 42.804h36.352v9.47q7.27-5.637 15.837-8.906 8.567-3.325 17.697-3.325 11.216 0 20.57 4.17 9.357 4.17 16.064 11.78 6.82 7.608 10.596 18.26 3.72 10.596 3.72 23.446 0 13.75-4.17 25.08-4.172 11.327-11.668 19.5-7.383 8.06-17.584 12.568-10.258 4.51-22.43 4.51-8.68 0-15.5-1.86-6.707-1.748-12.907-4.623v36.86h17.81v18.937H32.63v-18.937h15.613V61.74H32.406V42.805zm8575.836 8857.45q-7.947 0-15.273 3.212-7.272 3.213-12.682 8.792v61.77q3.607 3.72 10.37 6.708 6.82 2.987 16.964 2.987 7.045 0 13.527-2.762 6.48-2.76 11.44-8.17 4.96-5.524 7.946-13.528 2.988-8.06 2.988-18.598 0-9.694-2.875-17.19-2.762-7.496-7.61-12.68-4.734-5.186-11.102-7.835-6.37-2.763-13.64-2.763zM231.894 137.884h6.48l-22.655-28.18-22.15 28.18h5.635v18.937H161.33v-18.936h9.244l34.662-40.41-32.576-35.79h-11.554V42.75h37.874v18.937h-4.284l21.023 27.053 21.246-27.053h-5.523V42.748h37.874v18.937h-9.807l-32.238 37.197 34.098 38.945h8.342v18.937h-37.874v-18.937z" class="style4"/></svg>