<?xml version="1.0" encoding="UTF-8" standalone="no"?>
<!-- Created with Inkscape (http://www.inkscape.org/) -->

<svg
   xmlns:dc="http://purl.org/dc/elements/1.1/"
   xmlns:cc="http://creativecommons.org/ns#"
   xmlns:rdf="http://www.w3.org/1999/02/22-rdf-syntax-ns#"
   xmlns:svg="http://www.w3.org/2000/svg"
   xmlns="http://www.w3.org/2000/svg"
   xmlns:xlink="http://www.w3.org/1999/xlink"
   xmlns:sodipodi="http://sodipodi.sourceforge.net/DTD/sodipodi-0.dtd"
   xmlns:inkscape="http://www.inkscape.org/namespaces/inkscape"
   width="630.49591"
   height="125.48869"
   id="svg2"
   sodipodi:version="0.32"
   inkscape:version="0.48.4 r9939"
   sodipodi:docname="logo_black.svg"
   inkscape:output_extension="org.inkscape.output.svg.inkscape"
   inkscape:export-filename="/danbank/work/New Business/Products/ResourceSpace/Logo ideas/logo_ideas_colours.png"
   inkscape:export-xdpi="114.09434"
   inkscape:export-ydpi="114.09434"
   version="1.1">
  <defs
     id="defs4">
    <linearGradient
       id="linearGradient3516">
      <stop
         id="stop3518"
         offset="0"
         style="stop-color:#939393;stop-opacity:1;" />
      <stop
         id="stop3520"
         offset="1"
         style="stop-color:#000000;stop-opacity:1;" />
    </linearGradient>
    <linearGradient
       id="linearGradient3510">
      <stop
         id="stop3512"
         offset="0"
         style="stop-color:#939393;stop-opacity:1;" />
      <stop
         id="stop3514"
         offset="1"
         style="stop-color:#000000;stop-opacity:1;" />
    </linearGradient>
    <linearGradient
       id="linearGradient3498">
      <stop
         id="stop3500"
         offset="0"
         style="stop-color:#b7b7b7;stop-opacity:1;" />
      <stop
         id="stop3502"
         offset="1"
         style="stop-color:#a0a0a0;stop-opacity:0;" />
    </linearGradient>
    <linearGradient
       id="linearGradient3492">
      <stop
         id="stop3494"
         offset="0"
         style="stop-color:#9d9d9d;stop-opacity:1;" />
      <stop
         id="stop3496"
         offset="1"
         style="stop-color:#929292;stop-opacity:0;" />
    </linearGradient>
    <linearGradient
       id="linearGradient3486">
      <stop
         id="stop3488"
         offset="0"
         style="stop-color:#c3c3c3;stop-opacity:1;" />
      <stop
         id="stop3490"
         offset="1"
         style="stop-color:#c3c3c3;stop-opacity:0;" />
    </linearGradient>
    <linearGradient
       id="linearGradient3249">
      <stop
         style="stop-color:#92b0db;stop-opacity:1;"
         offset="0"
         id="stop3251" />
      <stop
         style="stop-color:#7098cf;stop-opacity:0;"
         offset="1"
         id="stop3253" />
    </linearGradient>
    <linearGradient
       id="linearGradient3241">
      <stop
         style="stop-color:#a4bde1;stop-opacity:1;"
         offset="0"
         id="stop3243" />
      <stop
         style="stop-color:#a4bde1;stop-opacity:0;"
         offset="1"
         id="stop3245" />
    </linearGradient>
    <linearGradient
       id="linearGradient3233">
      <stop
         style="stop-color:#7798c3;stop-opacity:1;"
         offset="0"
         id="stop3235" />
      <stop
         style="stop-color:#678bbc;stop-opacity:0;"
         offset="1"
         id="stop3237" />
    </linearGradient>
    <inkscape:perspective
       sodipodi:type="inkscape:persp3d"
       inkscape:vp_x="0 : 526.18109 : 1"
       inkscape:vp_y="0 : 1000 : 0"
       inkscape:vp_z="744.09448 : 526.18109 : 1"
       inkscape:persp3d-origin="372.04724 : 350.78739 : 1"
       id="perspective90" />
    <linearGradient
       id="linearGradient3451">
      <stop
         style="stop-color:#77d42b;stop-opacity:1;"
         offset="0"
         id="stop3453" />
      <stop
         style="stop-color:#272718;stop-opacity:1;"
         offset="1"
         id="stop3455" />
    </linearGradient>
    <linearGradient
       id="linearGradient3214">
      <stop
         style="stop-color:#668bbf;stop-opacity:1;"
         offset="0"
         id="stop3216" />
      <stop
         style="stop-color:#000000;stop-opacity:1;"
         offset="1"
         id="stop3218" />
    </linearGradient>
    <linearGradient
       id="linearGradient2162">
      <stop
         style="stop-color:#213c60;stop-opacity:1;"
         offset="0"
         id="stop2164" />
      <stop
         style="stop-color:#214574;stop-opacity:1;"
         offset="1"
         id="stop2166" />
    </linearGradient>
    <linearGradient
       inkscape:collect="always"
       xlink:href="#linearGradient3214"
       id="linearGradient3258"
       x1="169.42131"
       y1="180.07143"
       x2="136.15154"
       y2="250.47282"
       gradientUnits="userSpaceOnUse"
       gradientTransform="matrix(0.5226801,0,0,0.5226801,107.26416,117.05506)" />
    <linearGradient
       inkscape:collect="always"
       xlink:href="#linearGradient3214"
       id="linearGradient3266"
       x1="112.25674"
       y1="195.23921"
       x2="152.17786"
       y2="254.19325"
       gradientUnits="userSpaceOnUse"
       gradientTransform="matrix(0.5226801,0,0,0.5226801,107.26416,117.05506)" />
    <filter
       inkscape:collect="always"
       x="-0.2882756"
       width="1.5765512"
       y="-0.60161865"
       height="2.2032373"
       id="filter3703"
       color-interpolation-filters="sRGB">
      <feGaussianBlur
         inkscape:collect="always"
         stdDeviation="2.3334537"
         id="feGaussianBlur3705" />
    </filter>
    <filter
       inkscape:collect="always"
       x="-0.33224985"
       width="1.6644996"
       y="-0.69339097"
       height="2.3867819"
       id="filter3735"
       color-interpolation-filters="sRGB">
      <feGaussianBlur
         inkscape:collect="always"
         stdDeviation="2.6894043"
         id="feGaussianBlur3737" />
    </filter>
    <filter
       inkscape:collect="always"
       x="-0.032432392"
       width="1.0648648"
       y="-0.19200139"
       height="1.3840028"
       id="filter3303"
       color-interpolation-filters="sRGB">
      <feGaussianBlur
         inkscape:collect="always"
         stdDeviation="4.3070049"
         id="feGaussianBlur3305" />
    </filter>
    <linearGradient
       inkscape:collect="always"
       xlink:href="#linearGradient3451"
       id="linearGradient2712"
       gradientUnits="userSpaceOnUse"
       x1="120.54656"
       y1="189.36272"
       x2="134.18411"
       y2="196.34645" />
    <linearGradient
       inkscape:collect="always"
       xlink:href="#linearGradient3451"
       id="linearGradient2714"
       gradientUnits="userSpaceOnUse"
       x1="111.20192"
       y1="195.68793"
       x2="129.51404"
       y2="205.06549" />
    <linearGradient
       inkscape:collect="always"
       xlink:href="#linearGradient3516"
       id="linearGradient3094"
       gradientUnits="userSpaceOnUse"
       gradientTransform="matrix(0.76185825,0,0,0.73539428,-0.25724402,-35.033623)"
       x1="169.42131"
       y1="180.07143"
       x2="136.15154"
       y2="250.47282" />
    <linearGradient
       inkscape:collect="always"
       xlink:href="#linearGradient3510"
       id="linearGradient3097"
       gradientUnits="userSpaceOnUse"
       gradientTransform="matrix(0.76185825,0,0,0.73539428,-0.25724402,-35.033623)"
       x1="112.25674"
       y1="195.23921"
       x2="152.17786"
       y2="254.19325" />
    <linearGradient
       inkscape:collect="always"
       xlink:href="#linearGradient3498"
       id="linearGradient3100"
       gradientUnits="userSpaceOnUse"
       x1="144.06158"
       y1="210.3896"
       x2="189.33527"
       y2="220.29936"
       gradientTransform="matrix(1.4575995,0,0,1.4069682,-156.60543,-199.72637)" />
    <linearGradient
       inkscape:collect="always"
       xlink:href="#linearGradient3492"
       id="linearGradient3103"
       gradientUnits="userSpaceOnUse"
       x1="170.11758"
       y1="257.98755"
       x2="220.85672"
       y2="243.11255"
       gradientTransform="matrix(1.4575995,0,0,1.4069682,-156.60543,-199.72637)" />
    <linearGradient
       inkscape:collect="always"
       xlink:href="#linearGradient3486"
       id="linearGradient3106"
       gradientUnits="userSpaceOnUse"
       x1="158.11894"
       y1="253.67059"
       x2="207.11317"
       y2="268.98462"
       gradientTransform="matrix(1.4575995,0,0,1.4069682,-156.60543,-199.72637)" />
  </defs>
  <sodipodi:namedview
     id="base"
     pagecolor="#000000"
     bordercolor="#666666"
     borderopacity="1.0"
     gridtolerance="10000"
     guidetolerance="10"
     objecttolerance="10000"
     inkscape:pageopacity="0"
     inkscape:pageshadow="2"
     inkscape:zoom="2.2834027"
     inkscape:cx="-14.930938"
     inkscape:cy="41.298076"
     inkscape:document-units="px"
     inkscape:current-layer="layer1"
     inkscape:window-width="1855"
     inkscape:window-height="1056"
     inkscape:window-x="65"
     inkscape:window-y="24"
     showguides="true"
     inkscape:guide-bbox="true"
     showgrid="true"
     inkscape:window-maximized="1"
     fit-margin-top="0"
     fit-margin-left="0"
     fit-margin-right="0"
     fit-margin-bottom="0">
    <inkscape:grid
       type="xygrid"
       id="grid3108"
       units="mm"
       empspacing="5"
       visible="true"
       enabled="true"
       snapvisiblegridlinesonly="false"
       spacingx="0.2mm"
       spacingy="0.2mm"
       dotted="false"
       originx="-15.064648mm"
       originy="-243.25297mm" />
  </sodipodi:namedview>
  <metadata
     id="metadata7">
    <rdf:RDF>
      <cc:Work
         rdf:about="">
        <dc:format>image/svg+xml</dc:format>
        <dc:type
           rdf:resource="http://purl.org/dc/dcmitype/StillImage" />
        <dc:title />
      </cc:Work>
    </rdf:RDF>
  </metadata>
  <g
     inkscape:label="Layer 1"
     inkscape:groupmode="layer"
     id="layer1"
     transform="translate(-53.378672,-64.953519)">
    <g
       id="g2618"
       transform="matrix(1.5832407,0,0,1.5832407,-184.92877,-242.96993)"
       inkscape:export-filename="/Users/dan/Desktop/logos.png"
       inkscape:export-xdpi="73.559998"
       inkscape:export-ydpi="73.559998"
       style="fill:#ffffff;fill-opacity:1">
      <path
         style="font-size:64.65182495px;font-style:normal;font-variant:normal;font-weight:normal;font-stretch:normal;text-align:start;line-height:125%;writing-mode:lr-tb;text-anchor:start;fill:#ffffff;fill-opacity:1;stroke:none;font-family:Trebuchet MS"
         d="m 239.71875,220.1875 c -1.16686,4e-5 -3.03022,0.0684 -5.59375,0.21875 -2.54585,0.13162 -3.89928,0.21879 -4.09375,0.21875 l 0,41.28125 5.3125,0 0,-18 c 2.56352,0.18798 4.44045,0.28127 5.625,0.28125 l 10.34375,17.71875 6.09375,0 -11.28125,-19 c 2.06849,-0.50747 3.84098,-1.77618 5.34375,-3.84375 1.50274,-2.08631 2.28123,-4.4374 2.28125,-7.03125 -3e-5,-7.89423 -4.69646,-11.8437 -14.03125,-11.84375 z m -1.25,5.21875 c 3.3591,5e-5 5.81917,0.51631 7.375,1.53125 1.55577,1.015 2.31248,2.68813 2.3125,5 -3e-5,2.80061 -0.70656,4.72237 -2.15625,5.8125 -1.44974,1.09018 -3.78645,1.6563 -6.96875,1.65625 -1.20223,4e-5 -2.41459,-0.0933 -3.6875,-0.28125 l 0,-13.4375 c 1.55579,-0.18791 2.59461,-0.2812 3.125,-0.28125 z"
         id="path2620"
         inkscape:connector-curvature="0" />
      <path
         style="font-size:64.65182495px;font-style:normal;font-variant:normal;font-weight:normal;font-stretch:normal;text-align:start;line-height:125%;writing-mode:lr-tb;text-anchor:start;fill:#ffffff;fill-opacity:1;stroke:none;font-family:Trebuchet MS"
         d="m 270.3125,231.15625 c -3.48289,3e-5 -6.4854,1.34347 -9.03125,4.03125 -2.84642,3.00736 -4.28125,7.01912 -4.28125,12 0,4.79296 1.38055,8.59932 4.15625,11.4375 2.49281,2.57504 5.52247,3.87499 9.09375,3.875 2.47512,0 4.73453,-0.39809 6.75,-1.1875 1.60882,-0.60146 2.78456,-1.32924 3.5625,-2.15625 l -2.125,-3.875 c -1.92709,1.78561 -4.30577,2.6875 -7.1875,2.6875 -2.5282,0 -4.60993,-0.81471 -6.21875,-2.46875 -1.821,-1.89838 -2.71874,-4.62261 -2.71875,-8.15625 l 20.46875,0 c 0.26517,-0.99616 0.40621,-2.09711 0.40625,-3.28125 -3e-5,-3.85313 -1.11615,-6.91928 -3.34375,-9.25 -2.29836,-2.42463 -5.48264,-3.65623 -9.53125,-3.65625 z m 0.25,4.53125 c 2.4044,2e-5 4.29079,0.76492 5.6875,2.34375 1.2729,1.44731 1.90622,3.27599 1.90625,5.4375 l -15.71875,0 c 0.19448,-2.1803 1.01901,-4.00266 2.46875,-5.46875 1.52043,-1.54123 3.41093,-2.31249 5.65625,-2.3125 z"
         id="path2622"
         inkscape:connector-curvature="0" />
      <path
         style="font-size:64.65182495px;font-style:normal;font-variant:normal;font-weight:normal;font-stretch:normal;text-align:start;line-height:125%;writing-mode:lr-tb;text-anchor:start;fill:#ffffff;fill-opacity:1;stroke:none;font-family:Trebuchet MS"
         d="m 284.59389,260.11715 1.7768,-5.07487 c 2.81104,1.95476 5.07402,2.93215 6.78895,2.93215 3.11159,0 4.6674,-1.3909 4.66741,-4.17268 -10e-6,-1.99235 -1.50278,-3.70277 -4.5083,-5.13127 -2.31603,-1.12774 -3.88067,-1.98294 -4.69392,-2.56563 -0.79559,-0.58266 -1.49393,-1.24051 -2.09503,-1.97357 -0.58342,-0.75181 -1.02541,-1.54124 -1.32596,-2.36827 -0.28288,-0.84579 -0.42432,-1.74799 -0.42431,-2.70661 -1e-5,-2.48103 0.84861,-4.41699 2.54586,-5.80791 1.69723,-1.39086 3.91601,-2.08631 6.65635,-2.08634 2.0685,3e-5 4.67624,0.69548 7.82321,2.08634 l -1.43204,4.9621 c -1.99781,-1.6916 -4.00444,-2.53742 -6.0199,-2.53744 -1.20221,2e-5 -2.21879,0.30076 -3.04972,0.9022 -0.81327,0.6015 -1.2199,1.36273 -1.21989,2.28369 -10e-6,1.936 1.03424,3.40207 3.10276,4.39824 l 3.60663,1.74801 c 2.20993,1.07138 3.81878,2.2931 4.82653,3.66519 1.00771,1.37211 1.51158,3.09193 1.5116,5.15946 -2e-5,2.70661 -0.89284,4.83053 -2.67846,6.37179 -1.78565,1.52246 -4.26078,2.2837 -7.42542,2.2837 -2.98785,0 -5.7989,-0.78943 -8.43315,-2.36828"
         id="path2624"
         inkscape:connector-curvature="0" />
      <path
         style="font-size:64.65182495px;font-style:normal;font-variant:normal;font-weight:normal;font-stretch:normal;text-align:start;line-height:125%;writing-mode:lr-tb;text-anchor:start;fill:#ffffff;fill-opacity:1;stroke:none;font-family:Trebuchet MS"
         d="m 317.40625,231.15625 c -3.85416,3e-5 -6.94344,1.43678 -9.3125,4.3125 -2.35139,2.857 -3.53125,6.6199 -3.53125,11.28125 0,4.81175 1.11203,8.63057 3.375,11.46875 2.26298,2.83817 5.42013,4.28124 9.46875,4.28125 3.96021,0 7.1079,-1.41817 9.40625,-4.21875 2.29833,-2.81937 3.43746,-6.66311 3.4375,-11.53125 -3e-5,-4.8869 -1.12971,-8.69328 -3.375,-11.4375 -2.24532,-2.76296 -5.40246,-4.15623 -9.46875,-4.15625 z m 0,4.375 c 5.02099,3e-5 7.53122,3.73803 7.53125,11.21875 -2e-5,3.51484 -0.65638,6.28256 -2,8.3125 -1.32598,2.02995 -3.17987,3.06251 -5.53125,3.0625 -5.03868,10e-6 -7.56249,-3.80027 -7.5625,-11.375 0,-3.496 0.70117,-6.22637 2.0625,-8.21875 1.37901,-1.99233 3.20166,-2.99997 5.5,-3 z"
         id="path2626"
         inkscape:connector-curvature="0" />
      <path
         style="font-size:64.65182495px;font-style:normal;font-variant:normal;font-weight:normal;font-stretch:normal;text-align:start;line-height:125%;writing-mode:lr-tb;text-anchor:start;fill:#ffffff;fill-opacity:1;stroke:none;font-family:Trebuchet MS"
         d="m 338.24697,231.72602 0,19.25635 c -10e-6,4.66138 1.90054,6.99206 5.70166,6.99206 1.66186,0 3.1823,-0.50749 4.56133,-1.52247 1.37899,-1.01497 2.28948,-2.18971 2.73149,-3.52422 l 0,-21.20172 5.03868,0 0,30.19553 -5.03868,0 0,-4.17267 c -0.56576,1.18414 -1.7061,2.2743 -3.42099,3.27047 -1.69726,0.97739 -3.35914,1.46608 -4.98564,1.46608 -3.11162,0 -5.49836,-0.94919 -7.16023,-2.84757 -1.6442,-1.89837 -2.4663,-4.59558 -2.4663,-8.09162 l 0,-19.82022 5.03868,0"
         id="path2628"
         inkscape:connector-curvature="0" />
      <path
         style="font-size:64.65182495px;font-style:normal;font-variant:normal;font-weight:normal;font-stretch:normal;text-align:start;line-height:125%;writing-mode:lr-tb;text-anchor:start;fill:#ffffff;fill-opacity:1;stroke:none;font-family:Trebuchet MS"
         d="m 374.60943,236.88548 c -1.09616,-0.80819 -2.20113,-1.21231 -3.31492,-1.21233 -1.78565,2e-5 -3.35029,0.87403 -4.69393,2.62202 -1.32598,1.74804 -1.98896,3.85317 -1.98895,6.31541 l 0,17.31097 -5.03868,0 0,-30.19553 5.03868,0 0,4.82114 c 1.83867,-3.58998 4.57015,-5.38498 8.19448,-5.38501 0.90164,3e-5 2.20109,0.16919 3.89835,0.50749 l -2.09503,5.21584"
         id="path2630"
         inkscape:connector-curvature="0" />
      <path
         style="font-size:64.65182495px;font-style:normal;font-variant:normal;font-weight:normal;font-stretch:normal;text-align:start;line-height:125%;writing-mode:lr-tb;text-anchor:start;fill:#ffffff;fill-opacity:1;stroke:none;font-family:Trebuchet MS"
         d="m 397.71221,234.17888 -2.49282,3.77796 c -0.51273,-0.54505 -1.42323,-1.06193 -2.7315,-1.55065 -1.29062,-0.48867 -2.56355,-0.73302 -3.81879,-0.73304 -2.74034,2e-5 -4.91493,1.0244 -6.52375,3.07312 -1.60885,2.02998 -2.41327,4.82116 -2.41326,8.37355 -1e-5,3.53364 0.82209,6.23084 2.4663,8.09162 1.64418,1.84199 3.92485,2.76299 6.84199,2.76299 2.26296,0 4.54363,-0.93039 6.84199,-2.79119 l 1.98895,4.511 c -2.70499,1.86079 -6.05526,2.79119 -10.05084,2.79119 -3.87183,0 -7.07183,-1.3815 -9.59999,-4.14449 -2.52819,-2.76298 -3.79228,-6.50335 -3.79228,-11.22112 0,-4.81172 1.30828,-8.67426 3.92486,-11.58764 2.63425,-2.91332 6.23204,-4.37 10.79338,-4.37003 1.46739,3e-5 3.05856,0.32896 4.77349,0.98678 1.71489,0.65788 2.97899,1.33453 3.79227,2.02995"
         id="path2632"
         inkscape:connector-curvature="0" />
      <path
         style="font-size:64.65182495px;font-style:normal;font-variant:normal;font-weight:normal;font-stretch:normal;text-align:start;line-height:125%;writing-mode:lr-tb;text-anchor:start;fill:#ffffff;fill-opacity:1;stroke:none;font-family:Trebuchet MS"
         d="m 410.59375,231.15625 c -3.48289,3e-5 -6.51666,1.34347 -9.0625,4.03125 -2.84642,3.00736 -4.25001,7.01912 -4.25,12 0,4.79296 1.38054,8.59932 4.15625,11.4375 2.49281,2.57504 5.52247,3.87499 9.09375,3.875 2.47513,0 4.70328,-0.39809 6.71875,-1.1875 1.60882,-0.60146 2.81581,-1.32924 3.59375,-2.15625 l -2.125,-3.875 c -1.92709,1.78561 -4.33702,2.6875 -7.21875,2.6875 -2.5282,0 -4.57866,-0.81471 -6.1875,-2.46875 -1.821,-1.89838 -2.75,-4.62261 -2.75,-8.15625 l 20.46875,0 c 0.26517,-0.99616 0.40623,-2.09711 0.40625,-3.28125 -3e-5,-3.85313 -1.11616,-6.91928 -3.34375,-9.25 -2.29836,-2.42463 -5.4514,-3.65623 -9.5,-3.65625 z m 0.21875,4.53125 c 2.40441,2e-5 4.32203,0.76492 5.71875,2.34375 1.2729,1.44731 1.90622,3.27599 1.90625,5.4375 l -15.75,0 c 0.19447,-2.1803 1.019,-4.00266 2.46875,-5.46875 1.52043,-1.54123 3.41092,-2.31249 5.65625,-2.3125 z"
         id="path2634"
         inkscape:connector-curvature="0" />
      <path
         style="font-size:64.65182495px;font-style:normal;font-variant:normal;font-weight:normal;font-stretch:normal;text-align:start;line-height:125%;writing-mode:lr-tb;text-anchor:start;fill:#ffffff;fill-opacity:1;stroke:none;font-family:Trebuchet MS"
         d="m 425.36527,260.03257 1.93591,-5.18765 c 0.99005,0.77063 2.21878,1.41909 3.6862,1.94537 1.48507,0.50749 2.81103,0.76123 3.9779,0.76123 2.06849,0 3.73037,-0.60146 4.98563,-1.8044 1.25524,-1.20293 1.88286,-2.73479 1.88288,-4.59559 -2e-5,-1.39088 -0.35361,-2.67839 -1.06078,-3.86255 -0.68952,-1.20292 -2.43979,-2.50922 -5.25083,-3.91893 l -3.12929,-1.55065 c -2.65194,-1.31569 -4.50829,-2.87574 -5.56905,-4.68018 -1.04311,-1.80437 -1.56465,-3.97529 -1.56464,-6.51275 -1e-5,-3.08249 1.0254,-5.63872 3.07624,-7.66871 2.05082,-2.02991 4.68507,-3.04489 7.90277,-3.04493 4.29611,4e-5 7.28395,0.74249 8.96354,2.22731 l -1.56465,4.90572 c -0.7072,-0.54505 -1.78565,-1.07133 -3.23535,-1.57886 -1.44975,-0.50744 -2.7934,-0.76118 -4.03095,-0.76123 -1.80333,5e-5 -3.22653,0.54512 -4.26962,1.63525 -1.02542,1.09018 -1.53812,2.49047 -1.53811,4.20087 -10e-6,1.05259 0.18562,2.01118 0.55689,2.87576 0.37127,0.86464 0.88398,1.58828 1.53813,2.17092 0.67182,0.5827 2.03314,1.40032 4.08398,2.45285 l 3.18233,1.60706 c 2.65191,1.33452 4.50827,2.93217 5.56906,4.79294 1.07843,1.842 1.61766,4.19148 1.61768,7.04843 -2e-5,3.10133 -1.17572,5.73274 -3.52707,7.89426 -2.33372,2.16153 -5.46301,3.24228 -9.38786,3.24228 -3.44752,0 -6.39117,-0.8646 -8.83094,-2.59382"
         id="path2636"
         inkscape:connector-curvature="0" />
      <path
         style="font-size:64.65182495px;font-style:normal;font-variant:normal;font-weight:normal;font-stretch:normal;text-align:start;line-height:125%;writing-mode:lr-tb;text-anchor:start;fill:#ffffff;fill-opacity:1;stroke:none;font-family:Trebuchet MS"
         d="m 460.78125,231.15625 c -2.70498,3e-5 -5.02811,1.03257 -6.9375,3.0625 l 0,-2.5 -5.03125,0 0,42.03125 5.03125,0 0,-13.5 c 0.38895,0.58267 1.26366,1.1114 2.625,1.5625 1.37899,0.4511 2.67278,0.68749 3.875,0.6875 4.27844,0 7.54948,-1.44919 9.8125,-4.34375 2.26296,-2.91336 3.40622,-6.6638 3.40625,-11.25 -3e-5,-5.15004 -1.12973,-9.08096 -3.375,-11.75 -2.24532,-2.66898 -5.37534,-3.99998 -9.40625,-4 z m -1.90625,4.53125 c 3.2707,2e-5 5.67115,0.85822 7.15625,2.625 1.48505,1.76683 2.21872,4.55946 2.21875,8.375 -2e-5,7.51834 -3.11643,11.28125 -9.375,11.28125 -0.97238,0 -1.97459,-0.20516 -3,-0.65625 -1.02542,-0.4699 -1.71302,-0.96126 -2.03125,-1.46875 l 0,-17.59375 c 0.60111,-0.65783 1.41208,-1.25493 2.4375,-1.78125 1.0254,-0.52625 1.88654,-0.78124 2.59375,-0.78125 z"
         id="path2638"
         inkscape:connector-curvature="0" />
      <path
         style="font-size:64.65182495px;font-style:normal;font-variant:normal;font-weight:normal;font-stretch:normal;text-align:start;line-height:125%;writing-mode:lr-tb;text-anchor:start;fill:#ffffff;fill-opacity:1;stroke:none;font-family:Trebuchet MS"
         d="m 485.875,231.15625 c -1.53814,3e-5 -3.14652,0.30482 -4.84375,0.90625 -1.67957,0.5827 -3.01405,1.29802 -3.96875,2.125 l 2.125,4.46875 c 1.69723,-1.80438 4.13429,-2.68748 7.28125,-2.6875 4.10164,2e-5 6.15624,2.42559 6.15625,7.3125 -1.34367,-0.48868 -2.56425,-0.71873 -3.625,-0.71875 -3.9072,2e-5 -7.12808,1.06359 -9.65625,3.1875 -2.5105,2.10515 -3.75,4.68629 -3.75,7.75 0,2.55623 0.81097,4.67703 2.4375,6.40625 1.64418,1.71043 3.58485,2.59374 5.8125,2.59375 4.15469,0 7.2345,-1.34342 9.25,-4.03125 0.44196,1.42849 1.14849,2.44226 2.15625,3.0625 1.02539,0.62026 2.57413,0.93749 4.625,0.9375 l 0,-2.6875 c -1.48512,-0.8834 -2.21875,-2.66227 -2.21875,-5.3125 l 0,-10.8125 c -10e-6,-4.34181 -0.9385,-7.50763 -2.8125,-9.5 -1.85637,-1.99234 -4.84944,-2.99998 -8.96875,-3 z m 3.40625,15.375 c 0.63645,2e-5 1.75258,0.1866 3.34375,0.5625 l 0,7.3125 c -1.96245,2.57503 -4.23541,3.84377 -6.78125,3.84375 -3.48288,10e-6 -5.21874,-1.54859 -5.21875,-4.6875 0,-1.89838 0.7974,-3.54659 2.40625,-4.9375 1.60883,-1.39087 3.70413,-2.09374 6.25,-2.09375 z"
         id="path2640"
         inkscape:connector-curvature="0" />
      <path
         style="font-size:64.65182495px;font-style:normal;font-variant:normal;font-weight:normal;font-stretch:normal;text-align:start;line-height:125%;writing-mode:lr-tb;text-anchor:start;fill:#ffffff;fill-opacity:1;stroke:none;font-family:Trebuchet MS"
         d="m 523.00733,234.17888 -2.49282,3.77796 c -0.51273,-0.54505 -1.42322,-1.06193 -2.73149,-1.55065 -1.29062,-0.48867 -2.56355,-0.73302 -3.81879,-0.73304 -2.74034,2e-5 -4.91493,1.0244 -6.52376,3.07312 -1.60885,2.02998 -2.41327,4.82116 -2.41326,8.37355 -1e-5,3.53364 0.82209,6.23084 2.4663,8.09162 1.64419,1.84199 3.92485,2.76299 6.842,2.76299 2.26296,0 4.54362,-0.93039 6.84198,-2.79119 l 1.98895,4.511 c -2.70499,1.86079 -6.05526,2.79119 -10.05083,2.79119 -3.87184,0 -7.07183,-1.3815 -9.6,-4.14449 -2.52819,-2.76298 -3.79227,-6.50335 -3.79227,-11.22112 0,-4.81172 1.30828,-8.67426 3.92486,-11.58764 2.63425,-2.91332 6.23204,-4.37 10.79338,-4.37003 1.46738,3e-5 3.05855,0.32896 4.77349,0.98678 1.71489,0.65788 2.97898,1.33453 3.79226,2.02995"
         id="path2642"
         inkscape:connector-curvature="0" />
      <path
         style="font-size:64.65182495px;font-style:normal;font-variant:normal;font-weight:normal;font-stretch:normal;text-align:start;line-height:125%;writing-mode:lr-tb;text-anchor:start;fill:#ffffff;fill-opacity:1;stroke:none;font-family:Trebuchet MS"
         d="m 535.875,231.15625 c -3.48289,3e-5 -6.48543,1.34347 -9.03125,4.03125 -2.84641,3.00736 -4.28124,7.01912 -4.28125,12 0,4.79296 1.38053,8.59932 4.15625,11.4375 2.49282,2.57504 5.52245,3.87499 9.09375,3.875 2.47513,0 4.73451,-0.39809 6.75,-1.1875 1.60881,-0.60146 2.78455,-1.32924 3.5625,-2.15625 l -2.125,-3.875 c -1.92709,1.78561 -4.30575,2.6875 -7.1875,2.6875 -2.5282,0 -4.60994,-0.81471 -6.21875,-2.46875 -1.821,-1.89838 -2.71877,-4.62261 -2.71875,-8.15625 l 20.46875,0 c 0.26517,-0.99616 0.40622,-2.09711 0.40625,-3.28125 -3e-5,-3.85313 -1.11616,-6.91928 -3.34375,-9.25 -2.29837,-2.42463 -5.48266,-3.65623 -9.53125,-3.65625 z m 0.25,4.53125 c 2.40441,2e-5 4.29081,0.76492 5.6875,2.34375 1.2729,1.44731 1.9062,3.27599 1.90625,5.4375 l -15.71875,0 c 0.19447,-2.1803 1.01903,-4.00266 2.46875,-5.46875 1.52044,-1.54123 3.41094,-2.31249 5.65625,-2.3125 z"
         id="path2644"
         inkscape:connector-curvature="0" />
    </g>
    <path
       inkscape:connector-curvature="0"
       sodipodi:nodetypes="ccccc"
       id="path2648"
       d="m 73.700787,128.97636 0.167871,42.63619 34.556542,14.05673 0,-45.35433 z"
       style="fill:url(#linearGradient3106);fill-opacity:1;fill-rule:evenodd;stroke:none" />
    <path
       inkscape:connector-curvature="0"
       sodipodi:nodetypes="cccccc"
       id="path2650"
       d="m 143.36346,129.44434 -34.93826,10.87061 0,45.35433 34.85652,-14.05673 -0.13211,-41.92752 z"
       style="fill:url(#linearGradient3103);fill-opacity:1;fill-rule:evenodd;stroke:none" />
    <path
       inkscape:connector-curvature="0"
       sodipodi:nodetypes="ccccc"
       id="path2652"
       d="M 73.873687,128.95864 53.378672,101.17812 90.00806,91.497025 109.19489,118.85665 73.873687,128.95864 z"
       style="fill:url(#linearGradient3100);fill-opacity:1;fill-rule:evenodd;stroke:none" />
    <path
       inkscape:connector-curvature="0"
       sodipodi:nodetypes="cccc"
       id="path2654"
       d="m 73.700787,128.97636 34.724413,-10.62992 0,21.96851 z"
       style="fill:url(#linearGradient3097);fill-opacity:1;fill-rule:evenodd;stroke:none" />
    <path
       inkscape:connector-curvature="0"
       id="path2656"
       d="m 108.4252,118.34644 34.72441,11.33859 -34.72441,10.62992 z"
       style="fill:url(#linearGradient3094);fill-opacity:1;fill-rule:evenodd;stroke:none"
       sodipodi:nodetypes="cccc" />
    <path
       transform="matrix(0.8275284,0,0,1.1873233,5.9810657,-137.37284)"
       d="m 118.9895,211.54353 c 0,2.57053 -4.34885,4.65435 -9.71343,4.65435 -5.36458,0 -9.713429,-2.08382 -9.713429,-4.65435 0,-2.57052 4.348849,-4.65435 9.713429,-4.65435 5.36458,0 9.71343,2.08383 9.71343,4.65435 z"
       sodipodi:ry="4.6543512"
       sodipodi:rx="9.7134285"
       sodipodi:cy="211.54353"
       sodipodi:cx="109.27607"
       id="path2658"
       style="opacity:0.6416185;fill:#000000;fill-opacity:0.51744187;stroke:none;filter:url(#filter3703)"
       sodipodi:type="arc"
       inkscape:export-filename="/Users/dan/Desktop/logos.png"
       inkscape:export-xdpi="73.559998"
       inkscape:export-ydpi="73.559998" />
    <path
       sodipodi:type="arc"
       style="opacity:0.6416185;fill:#000000;fill-opacity:0.51744187;stroke:none;filter:url(#filter3735)"
       id="path2660"
       sodipodi:cx="109.27607"
       sodipodi:cy="211.54353"
       sodipodi:rx="9.7134285"
       sodipodi:ry="4.6543512"
       d="m 118.9895,211.54353 c 0,2.57053 -4.34885,4.65435 -9.71343,4.65435 -5.36458,0 -9.713429,-2.08382 -9.713429,-4.65435 0,-2.57052 4.348849,-4.65435 9.713429,-4.65435 5.36458,0 9.71343,2.08383 9.71343,4.65435 z"
       transform="matrix(0.90077782,0,0,1.8147417,-12.306172,-284.99696)"
       inkscape:export-filename="/Users/dan/Desktop/logos.png"
       inkscape:export-xdpi="73.559998"
       inkscape:export-ydpi="73.559998" />
    <g
       id="g2662"
       transform="matrix(0.89076937,0.53288873,-0.49825883,0.90511638,75.190105,-135.01834)"
       inkscape:export-filename="/Users/dan/Desktop/logos.png"
       inkscape:export-xdpi="73.559998"
       inkscape:export-ydpi="73.559998">
      <path
         sodipodi:nodetypes="ccccc"
         id="path2664"
         d="m 130.78827,202.97771 2.71508,-13.72821 -9.56095,-6.51804 -2.90241,13.97358 9.74828,6.27267 z"
         style="fill:#59a020;fill-opacity:1;fill-rule:evenodd;stroke:none"
         inkscape:connector-curvature="0" />
      <path
         sodipodi:nodetypes="ccccc"
         id="path2666"
         d="m 109.8512,198.08351 11.21318,-1.4959 2.90241,-13.97357 -11.2713,2.31353 -2.84429,13.15594 z"
         style="fill:#b1e785;fill-opacity:1;fill-rule:evenodd;stroke:none"
         inkscape:connector-curvature="0" />
      <path
         style="fill:#93dd57;fill-opacity:1;fill-rule:evenodd;stroke:none"
         d="m 130.89357,202.86129 -11.38795,1.25308 -9.51223,-6.06649 10.95627,-1.54233 z"
         id="path2668"
         inkscape:connector-curvature="0"
         sodipodi:nodetypes="ccccc" />
    </g>
    <g
       transform="matrix(1.0688059,0,0,1.0128569,3.4661195,-99.536187)"
       id="g2670"
       inkscape:export-filename="/Users/dan/Desktop/logos.png"
       inkscape:export-xdpi="73.559998"
       inkscape:export-ydpi="73.559998">
      <path
         sodipodi:nodetypes="ccccc"
         id="path2672"
         d="m 130.69116,202.52291 2.81219,-13.27341 -9.44259,-6.31724 -2.65216,13.29365 z"
         style="fill:#60ab22;fill-opacity:1;fill-rule:evenodd;stroke:none"
         inkscape:connector-curvature="0" />
      <path
         sodipodi:nodetypes="ccccc"
         id="path2674"
         d="m 110.13691,197.62525 11.27169,-1.39934 2.65216,-13.29365 -11.36527,1.99531 z"
         style="fill:#a0e16b;fill-opacity:1;fill-rule:evenodd;stroke:none"
         inkscape:connector-curvature="0" />
      <path
         style="fill:#427818;fill-opacity:1;fill-rule:evenodd;stroke:none"
         d="m 130.69116,202.52291 -11.18554,1.59146 -9.36871,-6.48912 11.27169,-1.39934 z"
         id="path2676"
         inkscape:connector-curvature="0"
         sodipodi:nodetypes="ccccc" />
    </g>
    <g
       id="g2678"
       transform="matrix(-0.42960983,0.97541717,-0.98895515,-0.45862525,350.67956,48.648872)"
       inkscape:export-filename="/Users/dan/Desktop/logos.png"
       inkscape:export-xdpi="73.559998"
       inkscape:export-ydpi="73.559998">
      <path
         sodipodi:nodetypes="ccccc"
         id="path2680"
         d="m 130.40686,202.64167 3.09649,-13.39217 -9.63618,-6.69737 -2.82718,14.15291 z"
         style="fill:#427818;fill-opacity:1;fill-rule:evenodd;stroke:none"
         inkscape:connector-curvature="0" />
      <path
         sodipodi:nodetypes="ccccc"
         id="path2682"
         d="m 109.8512,198.08351 11.2091,-1.41368 2.80687,-14.1177 -11.17168,2.37544 z"
         style="fill:#5faa22;fill-opacity:1;fill-rule:evenodd;stroke:none"
         inkscape:connector-curvature="0" />
      <path
         style="fill:#9ce065;fill-opacity:1;fill-rule:evenodd;stroke:none"
         d="m 130.40686,202.64167 -10.90124,1.4727 -9.51223,-6.06649 11.06691,-1.37805 z"
         id="path2684"
         inkscape:connector-curvature="0"
         sodipodi:nodetypes="ccccc" />
    </g>
    <g
       transform="matrix(0.47354016,0.91264247,-0.92470961,0.46736062,234.79537,-77.840992)"
       id="g2686"
       inkscape:export-filename="/Users/dan/Desktop/logos.png"
       inkscape:export-xdpi="73.559998"
       inkscape:export-ydpi="73.559998">
      <path
         style="fill:url(#linearGradient2712);fill-opacity:1;fill-rule:evenodd;stroke:none"
         d="m 130.78827,202.97771 2.71508,-13.72821 -9.56095,-6.51804 -2.90241,13.97358 9.74828,6.27267 z"
         id="path2688"
         sodipodi:nodetypes="ccccc"
         inkscape:connector-curvature="0" />
      <path
         style="fill:#8ddb4c;fill-opacity:1;fill-rule:evenodd;stroke:none"
         d="m 109.8512,198.08351 11.21318,-1.4959 2.90241,-13.97357 -11.2713,2.31353 -2.84429,13.15594 z"
         id="path2690"
         sodipodi:nodetypes="ccccc"
         inkscape:connector-curvature="0" />
      <path
         id="path2692"
         d="m 130.69617,202.75706 -11.19055,1.35731 -9.51223,-6.06649 10.95627,-1.54233 9.74651,6.25151 z"
         style="fill:url(#linearGradient2714);fill-opacity:1;fill-rule:evenodd;stroke:none"
         inkscape:connector-curvature="0" />
    </g>
    <g
       id="g2694"
       transform="matrix(0.60726811,-0.87772473,0.89370248,0.53614483,-173.23267,84.519565)"
       inkscape:export-filename="/Users/dan/Desktop/logos.png"
       inkscape:export-xdpi="73.559998"
       inkscape:export-ydpi="73.559998">
      <path
         style="fill:#59a020;fill-opacity:1;fill-rule:evenodd;stroke:none"
         d="m 130.49136,202.70144 3.01199,-13.45194 -9.62903,-6.63325 -2.85356,13.83324 z"
         id="path2696"
         sodipodi:nodetypes="ccccc"
         inkscape:connector-curvature="0" />
      <path
         style="fill:#a0e26c;fill-opacity:1;fill-rule:evenodd;stroke:none"
         d="m 110.06624,198.3424 10.99814,-1.75479 2.80994,-13.97136 -11.17883,2.31132 z"
         id="path2698"
         sodipodi:nodetypes="ccccc"
         inkscape:connector-curvature="0" />
      <path
         id="path2700"
         d="m 130.49136,202.70144 -10.98574,1.41293 -9.43938,-5.77197 10.95452,-1.89291 z"
         style="fill:#427817;fill-opacity:1;fill-rule:evenodd;stroke:none"
         inkscape:connector-curvature="0"
         sodipodi:nodetypes="ccccc" />
    </g>
  </g>
</svg>
