<svg xmlns:dc="http://purl.org/dc/elements/1.1/" xmlns:cc="http://creativecommons.org/ns#" xmlns:rdf="http://www.w3.org/1999/02/22-rdf-syntax-ns#" xmlns:svg="http://www.w3.org/2000/svg" xmlns="http://www.w3.org/2000/svg" xmlns:sodipodi="http://sodipodi.sourceforge.net/DTD/sodipodi-0.dtd" xmlns:inkscape="http://www.inkscape.org/namespaces/inkscape" width="371" height="225" version="1.1" inkscape:version="0.48.4 r9939"><style>.style0{fill:	#baabab;fill-rule:	nonzero;}.style1{fill:	#a09797;fill-rule:	nonzero;}.style2{fill:	#0d090c;fill-rule:	nonzero;}.style3{fill:	#fffffc;fill-rule:	nonzero;}.style4{fill:	#2b2222;fill-rule:	nonzero;}.style5{fill:	#e5e5e5;fill-rule:	nonzero;}.style6{fill:	#d80e2b;fill-rule:	nonzero;}.style7{fill:	#c4c4c4;fill-rule:	nonzero;}.style8{fill:	#1a1318;fill-rule:	nonzero;}.style9{fill:	#3e3043;fill-rule:	nonzero;}</style><defs/><metadata><rdf:RDF><cc:Work rdf:about=""><dc:format>image/svg+xml</dc:format><dc:type rdf:resource="http://purl.org/dc/dcmitype/StillImage"/><dc:title/></cc:Work></rdf:RDF></metadata><g inkscape:label="Layer 1" inkscape:groupmode="layer" transform="translate(-345.80357,-259.86218)"><path d="M446 270 L446 281 L435 281 L423 281 L412 281 L401 281 L390 281 L378 281 L378 292 L367 292 L367 304 L378 304 L390 304 L401 304 L412 304 L423 304 L435 304 L446 304 L457 304 L468 304 L468 292 L480 292 L480 281 L491 281 L491 270 L480 270 L468 270 L457 270 L446 270 zM491 281 L491 292 L480 292 L480 304 L468 304 L468 315 L457 315 L446 315 L435 315 L423 315 L412 315 L401 315 L390 315 L378 315 L367 315 L367 326 L367 337 L378 337 L390 337 L401 337 L412 337 L423 337 L435 337 L446 337 L457 337 L468 337 L480 337 L491 337 L502 337 L513 337 L525 337 L536 337 L547 337 L558 337 L570 337 L581 337 L592 337 L603 337 L615 337 L626 337 L637 337 L648 337 L660 337 L671 337 L682 337 L693 337 L693 326 L693 315 L693 304 L693 292 L693 281 L682 281 L682 270 L671 270 L660 270 L648 270 L637 270 L626 270 L615 270 L603 270 L592 270 L581 270 L570 270 L558 270 L547 270 L536 270 L525 270 L513 270 L502 270 L502 281 L491 281 zM513 281 L525 281 L536 281 L547 281 L558 281 L570 281 L581 281 L592 281 L592 292 L592 304 L592 315 L581 315 L570 315 L558 315 L547 315 L536 315 L525 315 L513 315 L502 315 L491 315 L491 304 L502 304 L502 292 L513 292 L513 281 zM603 281 L615 281 L626 281 L637 281 L648 281 L660 281 L671 281 L671 292 L671 304 L671 315 L671 326 L660 326 L648 326 L637 326 L626 326 L615 326 L603 326 L603 315 L603 304 L603 292 L603 281 zM367 461 L367 472 L378 472 L378 484 L390 484 L401 484 L412 484 L423 484 L435 484 L446 484 L457 484 L468 484 L480 484 L491 484 L502 484 L513 484 L525 484 L536 484 L547 484 L558 484 L570 484 L581 484 L592 484 L603 484 L615 484 L626 484 L637 484 L648 484 L660 484 L671 484 L682 484 L682 472 L693 472 L693 461 L682 461 L671 461 L660 461 L648 461 L637 461 L626 461 L615 461 L603 461 L592 461 L581 461 L570 461 L558 461 L547 461 L536 461 L525 461 L513 461 L502 461 L491 461 L480 461 L468 461 L457 461 L446 461 L435 461 L423 461 L412 461 L401 461 L390 461 L378 461 L367 461 z" class="style0"/><path d="M491 270 L491 281 L502 281 L502 270 L491 270 zM491 281 L480 281 L480 292 L491 292 L491 281 zM480 292 L468 292 L468 304 L480 304 L480 292 zM468 304 L457 304 L446 304 L435 304 L423 304 L412 304 L401 304 L390 304 L378 304 L367 304 L367 315 L378 315 L390 315 L401 315 L412 315 L423 315 L435 315 L446 315 L457 315 L468 315 L468 304 z" class="style1"/><path d="M513 281 L513 292 L502 292 L502 304 L491 304 L491 315 L502 315 L513 315 L525 315 L536 315 L547 315 L558 315 L570 315 L581 315 L592 315 L592 304 L592 292 L592 281 L581 281 L570 281 L558 281 L547 281 L536 281 L525 281 L513 281 zM603 281 L603 292 L603 304 L603 315 L603 326 L615 326 L626 326 L637 326 L648 326 L660 326 L671 326 L671 315 L671 304 L671 292 L671 281 L660 281 L648 281 L637 281 L626 281 L615 281 L603 281 zM547 292 L558 292 L558 304 L547 304 L547 292 zM615 292 L626 292 L637 292 L637 304 L637 315 L626 315 L615 315 L615 304 L615 292 z" class="style2"/><path inkscape:connector-curvature="0" d="m 559 304 -11 0 0 -11 11 0 0 11 z" class="style3"/><path d="M615 292 L615 304 L615 315 L626 315 L637 315 L637 304 L637 292 L626 292 L615 292 z" class="style3"/><path d="M367 337 L367 349 L367 360 L367 371 L367 382 L367 394 L367 405 L367 416 L367 427 L367 439 L367 450 L367 461 L378 461 L390 461 L401 461 L412 461 L423 461 L435 461 L446 461 L457 461 L468 461 L480 461 L491 461 L502 461 L513 461 L525 461 L536 461 L547 461 L558 461 L570 461 L581 461 L592 461 L603 461 L615 461 L626 461 L637 461 L648 461 L660 461 L671 461 L682 461 L693 461 L693 450 L693 439 L693 427 L693 416 L693 405 L693 394 L693 382 L693 371 L693 360 L693 349 L693 337 L682 337 L671 337 L660 337 L648 337 L637 337 L626 337 L615 337 L603 337 L592 337 L581 337 L570 337 L558 337 L547 337 L536 337 L525 337 L513 337 L502 337 L491 337 L480 337 L468 337 L457 337 L446 337 L435 337 L423 337 L412 337 L401 337 L390 337 L378 337 L367 337 zM390 349 L401 349 L412 349 L423 349 L435 349 L446 349 L446 360 L446 371 L435 371 L423 371 L412 371 L401 371 L390 371 L390 360 L390 349 z" class="style4"/><path d="M390 349 L390 360 L390 371 L401 371 L412 371 L423 371 L435 371 L446 371 L446 360 L446 349 L435 349 L435 360 L423 360 L423 349 L412 349 L412 360 L401 360 L401 349 L390 349 z" class="style5"/><path inkscape:connector-curvature="0" d="m 413 361 -11 0 0 -11 11 0 0 11 z" class="style6"/><path inkscape:connector-curvature="0" d="m 435 361 -11 0 0 -11 11 0 0 11 z" class="style6"/><path d="M513 259 L513 270 L525 270 L525 259 L513 259 zM558 259 L558 270 L570 270 L570 259 L558 259 zM626 259 L626 270 L637 270 L648 270 L660 270 L671 270 L671 259 L660 259 L648 259 L637 259 L626 259 zM390 270 L390 281 L401 281 L412 281 L423 281 L435 281 L435 270 L423 270 L412 270 L401 270 L390 270 zM345 304 L345 315 L356 315 L356 326 L367 326 L367 315 L367 304 L356 304 L345 304 zM693 304 L693 315 L693 326 L705 326 L705 315 L716 315 L716 304 L705 304 L693 304 zM626 394 L626 405 L637 405 L637 394 L626 394 z" class="style7"/><g transform="matrix(1.25,0,0,-1.25,627.05357,400.48718)"><path inkscape:connector-curvature="0" d="m 0 0 c 0 -37 -30 -67 -67 -67 -37 0 -67 30 -67 67 0 37 30 67 67 67 C -30 67 0 37 0 0" class="style3"/></g><g transform="matrix(1.25,0,0,-1.25,615.80357,400.48718)"><path inkscape:connector-curvature="0" d="m 0 0 c 0 -32 -26 -58 -58 -58 -32 0 -58 26 -58 58 0 32 26 58 58 58 C -26 58 0 32 0 0" class="style8"/></g><g transform="matrix(1.25,0,0,-1.25,593.30357,400.48718)"><path inkscape:connector-curvature="0" d="M 0 0 C 0 -22 -18 -40 -40 -40 -62 -40 -81 -22 -81 0 -81 22 -62 40 -40 40 -18 40 0 22 0 0" class="style9"/></g><g transform="matrix(1.25,0,0,-1.25,582.05357,400.48718)"><path inkscape:connector-curvature="0" d="M 0 0 C 0 -17 -14 -31 -31 -31 -48 -31 -63 -17 -63 0 -63 17 -48 31 -31 31 -14 31 0 17 0 0" class="style8"/></g><path d="M401 259 L401 270 L412 270 L423 270 L423 259 L412 259 L401 259 z" class="style8"/></g></svg>