<?xml version="1.0" encoding="iso-8859-1"?>
<!-- Generator: Adobe Illustrator 19.0.0, SVG Export Plug-In . SVG Version: 6.00 Build 0)  -->
<svg version="1.1" id="Layer_1" xmlns="http://www.w3.org/2000/svg" xmlns:xlink="http://www.w3.org/1999/xlink" x="0px" y="0px"
	 viewBox="0 0 490 490" style="enable-background:new 0 0 490 490;" xml:space="preserve">
<g>
	<g id="XMLID_52_">
		<g>
			<polygon style="fill:#31C0D8;" points="480,300 480,480 10,480 10,300 105,300 105,235 195,300 			"/>
			<polygon style="fill:#AFB6BB;" points="480,10 480,195 385,195 385,260 295,195 10,195 10,10 			"/>
		</g>
		<g>
			<g>
				<path style="fill:#231F20;" d="M385.001,270c-2.066,0-4.119-0.639-5.855-1.894L291.767,205H10c-5.523,0-10-4.477-10-10V10
					C0,4.477,4.477,0,10,0h470c5.522,0,10,4.477,10,10v185c0,5.523-4.478,10-10,10h-85v55c0,3.755-2.103,7.194-5.447,8.903
					C388.116,269.638,386.556,270,385.001,270z M20,185h275c2.103,0,4.15,0.662,5.854,1.894L375,240.442V195c0-5.523,4.478-10,10-10
					h85V20H20V185z"/>
			</g>
			<g>
				<path style="fill:#231F20;" d="M480,490H10c-5.523,0-10-4.478-10-10V300c0-5.522,4.477-10,10-10h85v-55
					c0-3.755,2.104-7.194,5.447-8.903c3.345-1.711,7.364-1.402,10.407,0.797L198.233,290H480c5.522,0,10,4.478,10,10v180
					C490,485.522,485.522,490,480,490z M20,470h450V310H195c-2.102,0-4.15-0.662-5.855-1.894L115,254.558V300
					c0,5.522-4.478,10-10,10H20V470z"/>
			</g>
			<g>
				<rect x="60" y="45" style="fill:#231F20;" width="370" height="20"/>
			</g>
			<g>
				<rect x="60" y="85" style="fill:#231F20;" width="370" height="20"/>
			</g>
			<g>
				<rect x="60" y="125" style="fill:#231F20;" width="285" height="20"/>
			</g>
			<g>
				<rect x="125" y="350" style="fill:#231F20;" width="305" height="20"/>
			</g>
			<g>
				<rect x="60" y="390" style="fill:#231F20;" width="370" height="20"/>
			</g>
			<g>
				<rect x="60" y="430" style="fill:#231F20;" width="320" height="20"/>
			</g>
			<g>
				<rect x="405" y="125" style="fill:#231F20;" width="25" height="20"/>
			</g>
			<g>
				<rect x="365" y="125" style="fill:#231F20;" width="25" height="20"/>
			</g>
			<g>
				<rect x="60" y="350" style="fill:#231F20;" width="25" height="20"/>
			</g>
		</g>
	</g>
</g>
<g>
</g>
<g>
</g>
<g>
</g>
<g>
</g>
<g>
</g>
<g>
</g>
<g>
</g>
<g>
</g>
<g>
</g>
<g>
</g>
<g>
</g>
<g>
</g>
<g>
</g>
<g>
</g>
<g>
</g>
</svg>
