<?xml version="1.0" encoding="iso-8859-1"?>
<!-- Generator: Adobe Illustrator 19.0.0, SVG Export Plug-In . SVG Version: 6.00 Build 0)  -->
<svg version="1.1" id="Layer_1" xmlns="http://www.w3.org/2000/svg" xmlns:xlink="http://www.w3.org/1999/xlink" x="0px" y="0px"
	 viewBox="0 0 490 490" style="enable-background:new 0 0 490 490;" xml:space="preserve">
<g>
	<g id="XMLID_50_">
		<g>
			<polygon style="fill:#FFFFFF;" points="480,110 480,480 110,480 110,425 280,425 280,147.5 202.5,70 110,70 110,10 380,10 
				380,110 			"/>
			<polygon style="fill:#AFB6BB;" points="480,110 380,110 380,10 			"/>
			<polygon style="fill:#E7ECED;" points="280,147.5 280,425 110,425 10,425 10,70 110,70 202.5,70 202.5,147.5 			"/>
			<polygon style="fill:#AFB6BB;" points="280,147.5 202.5,147.5 202.5,70 			"/>
		</g>
		<g>
			<path style="fill:#231F20;" d="M489.976,110c-0.001-2.602-0.993-5.158-2.905-7.071l-100-100c-1.913-1.912-4.47-2.903-7.071-2.904
				V0H110c-5.523,0-10,4.477-10,10v50H10C4.477,60,0,64.478,0,70v355c0,5.522,4.477,10,10,10h90v45c0,5.522,4.477,10,10,10h370
				c5.523,0,10-4.478,10-10V110H489.976z M390,34.143L455.858,100H390V34.143z M20,80h172.5v67.5c0,5.523,4.477,10,10,10H270V415H20
				V80z M212.5,94.143l43.357,43.357H212.5V94.143z M120,470v-35h160c5.523,0,10-4.478,10-10V147.5c0-2.652-1.054-5.195-2.929-7.071
				l-77.5-77.5C207.696,61.054,205.152,60,202.5,60H120V20h250v90c0,5.522,4.477,10,10,10h90v350H120z"/>
			<rect x="310" y="160" style="fill:#231F20;" width="130" height="20"/>
			<rect x="310" y="220" style="fill:#231F20;" width="130" height="20"/>
			<rect x="310" y="280" style="fill:#231F20;" width="130" height="20"/>
			<rect x="310" y="340" style="fill:#231F20;" width="130" height="20"/>
			<rect x="310" y="400" style="fill:#231F20;" width="130" height="20"/>
			<rect x="45" y="105" style="fill:#231F20;" width="65" height="20"/>
			<rect x="45" y="145" style="fill:#231F20;" width="65" height="20"/>
			<rect x="45" y="205" style="fill:#231F20;" width="200" height="20"/>
			<rect x="45" y="255" style="fill:#231F20;" width="200" height="20"/>
			<rect x="45" y="305" style="fill:#231F20;" width="200" height="20"/>
			<rect x="45" y="355" style="fill:#231F20;" width="200" height="20"/>
		</g>
	</g>
</g>
<g>
</g>
<g>
</g>
<g>
</g>
<g>
</g>
<g>
</g>
<g>
</g>
<g>
</g>
<g>
</g>
<g>
</g>
<g>
</g>
<g>
</g>
<g>
</g>
<g>
</g>
<g>
</g>
<g>
</g>
</svg>
