<?xml version="1.0" encoding="iso-8859-1"?>
<!-- Generator: Adobe Illustrator 19.0.0, SVG Export Plug-In . SVG Version: 6.00 Build 0)  -->
<svg version="1.1" id="Layer_1" xmlns="http://www.w3.org/2000/svg" xmlns:xlink="http://www.w3.org/1999/xlink" x="0px" y="0px"
	 viewBox="0 0 490 490" style="enable-background:new 0 0 490 490;" xml:space="preserve">
<g>
	<g>
		<g id="XMLID_44_">
			<g>
				<path style="fill:#AFB6BB;" d="M480,50v295c0,22.1-17.9,40-40,40H340l-95,95v-95H50c-22.1,0-40-17.9-40-40V50
					c0-22.1,17.9-40,40-40h390C462.1,10,480,27.9,480,50z"/>
			</g>
			<g>
				<g>
					<path style="fill:#231F20;" d="M244.998,490c-1.288,0-2.587-0.249-3.824-0.761C237.436,487.691,235,484.045,235,480v-85H50
						c-27.57,0-50-22.43-50-50V50C0,22.43,22.43,0,50,0h390c27.57,0,50,22.43,50,50v295c0,27.57-22.43,50-50,50h-95.858
						l-92.071,92.071C250.158,488.984,247.6,490,244.998,490z M50,20c-16.542,0-30,13.458-30,30v295c0,16.542,13.458,30,30,30h195
						c5.523,0,10,4.478,10,10v70.857l77.929-77.929c1.875-1.875,4.419-2.929,7.071-2.929h100c16.542,0,30-13.458,30-30V50
						c0-16.542-13.458-30-30-30H50z"/>
				</g>
				<g>
					<rect x="60" y="60" style="fill:#231F20;" width="370" height="20"/>
				</g>
				<g>
					<rect x="60" y="110" style="fill:#231F20;" width="370" height="20"/>
				</g>
				<g>
					<rect x="60" y="160" style="fill:#231F20;" width="370" height="20"/>
				</g>
				<g>
					<rect x="60" y="210" style="fill:#231F20;" width="370" height="20"/>
				</g>
				<g>
					<rect x="210" y="260" style="fill:#231F20;" width="220" height="20"/>
				</g>
				<g>
					<rect x="210" y="310" style="fill:#231F20;" width="165" height="20"/>
				</g>
				<g>
					<path style="fill:#231F20;" d="M105,335c-2.559,0-5.119-0.977-7.071-2.929l-30-30l14.143-14.143L105,310.857l62.929-62.929
						l14.143,14.143l-70,70C110.119,334.023,107.559,335,105,335z"/>
				</g>
			</g>
		</g>
	</g>
	<g>
		<rect x="395" y="310" style="fill:#231F20;" width="30" height="20"/>
	</g>
</g>
<g>
</g>
<g>
</g>
<g>
</g>
<g>
</g>
<g>
</g>
<g>
</g>
<g>
</g>
<g>
</g>
<g>
</g>
<g>
</g>
<g>
</g>
<g>
</g>
<g>
</g>
<g>
</g>
<g>
</g>
</svg>
