<?xml version="1.0" encoding="UTF-8" standalone="no"?>
<!-- Created with Inkscape (http://www.inkscape.org/) -->

<svg
   xmlns:dc="http://purl.org/dc/elements/1.1/"
   xmlns:cc="http://creativecommons.org/ns#"
   xmlns:rdf="http://www.w3.org/1999/02/22-rdf-syntax-ns#"
   xmlns:svg="http://www.w3.org/2000/svg"
   xmlns="http://www.w3.org/2000/svg"
   version="1.2"
   viewBox="0 0 1024 768"
   preserveAspectRatio="xMidYMid meet"
   id="svg4417">
  <defs
     id="defs4419" />
  <metadata
     id="metadata4422">
    <rdf:RDF>
      <cc:Work
         rdf:about="">
        <dc:format>image/svg+xml</dc:format>
        <dc:type
           rdf:resource="http://purl.org/dc/dcmitype/StillImage" />
        <dc:title></dc:title>
      </cc:Work>
    </rdf:RDF>
  </metadata>
  <g
     transform="translate(-281.16158,-324.95232)"
     id="layer1">
    <path
       d="m 285.57858,329.36932 297.41428,0 0,297.41428 -297.41428,0 z"
       id="rect15398"
       style="fill:none;stroke:#323232;stroke-width:8.83399391;stroke-linecap:square;stroke-linejoin:miter;stroke-miterlimit:4;stroke-opacity:1;stroke-dashoffset:0" />
    <g
       transform="matrix(1.25,0,0,-1.25,-7253.9104,8366.6673)"
       id="g4927">
      <g
         transform="matrix(1.2186059,0,0,-1.2186059,-4350.9182,17066.063)"
         id="flowRoot15400"
         style="font-size:32.82439423px;font-style:normal;font-variant:normal;font-weight:normal;font-stretch:normal;text-align:start;line-height:125%;letter-spacing:0px;word-spacing:0px;writing-mode:lr-tb;text-anchor:start;fill:#323232;fill-opacity:1;stroke:none;font-family:Arvo;-inkscape-font-specification:Arvo">
        <path
           d="m 8544.8544,8871.8481 9.8249,0 c 1.0899,1e-4 2.0916,0.1416 3.0052,0.4248 0.9135,0.2831 1.7042,0.6999 2.3721,1.2501 0.6678,0.5503 1.186,1.2368 1.5546,2.0596 0.3686,0.8227 0.553,1.7683 0.553,2.8368 0,0.8869 -0.1817,1.723 -0.545,2.5083 -0.3633,0.7854 -0.8761,1.4719 -1.5386,2.0596 -0.6625,0.5877 -1.4559,1.0525 -2.3801,1.3944 -0.9243,0.3419 -1.9527,0.5129 -3.0853,0.5129 l -4.3114,0 0,8.4946 2.4362,0 0,2.7567 -7.8856,0 0,-2.7567 2.308,0 0,-18.7683 -2.308,0 z m 5.4494,2.7728 0,7.6451 4.3755,0 c 0.6091,1e-4 1.1673,-0.083 1.6749,-0.2484 0.5075,-0.1656 0.9456,-0.4087 1.3143,-0.7292 0.3686,-0.3206 0.6571,-0.7213 0.8654,-1.2021 0.2084,-0.4808 0.3126,-1.0364 0.3126,-1.6669 0,-1.1967 -0.3633,-2.1289 -1.0899,-2.7968 -0.7266,-0.6678 -1.8859,-1.0017 -3.478,-1.0017 z"
           id="path4484"
           style="font-family:Arvo;-inkscape-font-specification:Arvo" />
        <path
           d="m 8565.2415,8871.8481 7.7573,0 0,2.7728 -2.308,0 0,18.7683 2.308,0 0,2.7567 -7.7573,0 0,-2.7567 2.3079,0 0,-18.7683 -2.3079,0 z"
           id="path4486"
           style="font-family:Arvo;-inkscape-font-specification:Arvo" />
        <path
           d="m 8590.5489,8871.8481 7.8856,0 0,2.7728 -1.7951,0 -6.5713,9.1197 6.8598,9.6486 1.5066,0 0,2.7567 -7.8856,0 0,-2.7567 2.9651,0 -5.1929,-7.2285 -5.225,7.2285 2.8369,0 0,2.7567 -7.8855,0 0,-2.7567 1.5867,0 6.9239,-9.6647 -6.5392,-9.1036 -1.9714,0 0,-2.7728 7.8855,0 0,2.7728 -2.34,0 4.7281,6.6514 4.7762,-6.6514 -2.5484,0 z"
           id="path4488"
           style="font-family:Arvo;-inkscape-font-specification:Arvo" />
        <path
           d="m 8601.656,8871.8481 7.8856,0 0,2.7728 -2.4362,0 0,18.7683 8.3824,0 c 0.1709,0 0.3419,-0.04 0.5129,-0.1203 0.1709,-0.08 0.3258,-0.1843 0.4648,-0.3125 0.1389,-0.1282 0.251,-0.2751 0.3365,-0.4408 0.086,-0.1656 0.1282,-0.3339 0.1283,-0.5048 l 0,-3.0613 3.0452,0 0,7.1964 -18.3195,0 0,-2.7567 2.308,0 0,-18.7683 -2.308,0 z"
           id="path4490"
           style="font-family:Arvo;-inkscape-font-specification:Arvo" />
        <path
           d="m 8634.8811,8878.4515 c 0,-0.9403 -0.171,-1.6455 -0.5129,-2.1156 -0.3419,-0.4702 -0.7186,-0.8308 -1.1299,-1.0819 -0.4114,-0.2511 -0.8628,-0.4434 -1.3543,-0.577 -0.4916,-0.1335 -0.9831,-0.2003 -1.4746,-0.2003 -0.812,0 -1.5226,0.094 -2.1316,0.2804 -0.6091,0.187 -1.114,0.4408 -1.5146,0.7613 -0.4007,0.3206 -0.7026,0.6946 -0.9056,1.122 -0.203,0.4274 -0.3045,0.8762 -0.3045,1.3463 0,0.7052 0.1255,1.2742 0.3766,1.7069 0.2511,0.4328 0.569,0.78 0.9537,1.0418 0.3846,0.2618 0.8093,0.4675 1.2742,0.6171 0.4647,0.1496 0.9108,0.2992 1.3383,0.4487 l 3.2375,1.0579 c 0.9723,0.3098 1.8298,0.6624 2.5724,1.0578 0.7426,0.3953 1.365,0.8628 1.8672,1.4024 0.5022,0.5396 0.8842,1.162 1.146,1.8672 0.2618,0.7052 0.3927,1.5226 0.3927,2.4522 0,1.0044 -0.2057,1.934 -0.6171,2.7888 -0.4114,0.8548 -0.9857,1.5974 -1.7229,2.2278 -0.7373,0.6304 -1.6162,1.1246 -2.6366,1.4826 -1.0204,0.3579 -2.1397,0.5369 -3.3577,0.5369 -1.2502,0 -2.3187,-0.1416 -3.2055,-0.4247 -0.8869,-0.2832 -1.6322,-0.6625 -2.2359,-1.138 -0.6037,-0.4755 -1.0872,-1.0177 -1.4505,-1.6268 -0.3633,-0.609 -0.6464,-1.2341 -0.8494,-1.8752 l -1.2181,0 0,-2.7567 4.0389,0 c 0,1.186 0.1256,2.0248 0.3767,2.5163 0.2511,0.4915 0.601,0.9002 1.0498,1.2261 0.4487,0.3259 0.983,0.5716 1.6027,0.7373 0.6197,0.1656 1.3036,0.2484 2.0515,0.2484 0.7266,0 1.3811,-0.086 1.9634,-0.2565 0.5823,-0.1709 1.0792,-0.4193 1.4906,-0.7452 0.4113,-0.3259 0.7265,-0.7213 0.9456,-1.1861 0.219,-0.4648 0.3286,-0.991 0.3286,-1.5787 0,-0.6518 -0.1363,-1.2047 -0.4087,-1.6588 -0.2725,-0.4541 -0.6225,-0.8415 -1.0498,-1.162 -0.4275,-0.3206 -0.8949,-0.5824 -1.4024,-0.7854 -0.5076,-0.203 -0.9964,-0.3793 -1.4666,-0.5289 l -3.51,-0.9937 c -0.7693,-0.2351 -1.4719,-0.5342 -2.1076,-0.8975 -0.6358,-0.3633 -1.1807,-0.8068 -1.6348,-1.3303 -0.4541,-0.5236 -0.8041,-1.1353 -1.0498,-1.8352 -0.2458,-0.6998 -0.3687,-1.5092 -0.3687,-2.4282 0,-0.9295 0.1817,-1.8004 0.545,-2.6124 0.3633,-0.8121 0.8975,-1.5226 1.6027,-2.1317 0.7052,-0.609 1.568,-1.0872 2.5885,-1.4345 1.0204,-0.3472 2.1877,-0.5208 3.502,-0.5209 0.8655,10e-5 1.6642,0.1016 2.3961,0.3046 0.7319,0.203 1.3944,0.4888 1.9874,0.8574 0.593,0.3687 1.1166,0.8121 1.5707,1.3303 0.4541,0.5183 0.8361,1.0872 1.146,1.707 l 1.2021,0 0,2.7567 -3.9268,0 z"
           id="path4492"
           style="font-family:Arvo;-inkscape-font-specification:Arvo" />
        <path
           d="m 8641.0998,8894.2066 c 0,-0.2779 0.056,-0.5423 0.1683,-0.7934 0.1122,-0.2511 0.2644,-0.4701 0.4568,-0.6571 0.1923,-0.187 0.414,-0.3366 0.6651,-0.4488 0.2511,-0.1122 0.5209,-0.1683 0.8094,-0.1683 0.2778,0 0.5423,0.056 0.7934,0.1683 0.2511,0.1122 0.4701,0.2618 0.6571,0.4488 0.187,0.187 0.3366,0.406 0.4488,0.6571 0.1122,0.2511 0.1682,0.5155 0.1683,0.7934 -10e-5,0.2885 -0.056,0.5609 -0.1683,0.8174 -0.1122,0.2564 -0.2618,0.4835 -0.4488,0.6811 -0.187,0.1977 -0.406,0.3526 -0.6571,0.4648 -0.2511,0.1122 -0.5156,0.1683 -0.7934,0.1683 -0.2885,0 -0.5583,-0.056 -0.8094,-0.1683 -0.2511,-0.1122 -0.4728,-0.2671 -0.6651,-0.4648 -0.1924,-0.1976 -0.3446,-0.4247 -0.4568,-0.6811 -0.1122,-0.2565 -0.1683,-0.5289 -0.1683,-0.8174 z"
           id="path4494"
           style="font-family:Arvo;-inkscape-font-specification:Arvo" />
        <path
           d="m 8648.6808,8871.8481 7.8695,0 0,2.7728 -2.4842,0 0,11.3154 c 0,1.3571 0.1522,2.5137 0.4568,3.47 0.3045,0.9563 0.7265,1.7363 1.2661,2.34 0.5396,0.6037 1.1807,1.0445 1.9233,1.3223 0.7426,0.2778 1.5574,0.4167 2.4442,0.4167 0.9189,0 1.763,-0.1229 2.5324,-0.3686 0.7693,-0.2458 1.4291,-0.6598 1.9794,-1.2422 0.5502,-0.5823 0.9776,-1.3569 1.2822,-2.3239 0.3045,-0.967 0.4568,-2.1718 0.4568,-3.6143 l 0,-11.3154 -2.6285,0 0,-2.7728 7.8695,0 0,2.7728 -2.1637,0 0,10.9628 c -10e-5,1.7524 -0.2431,3.3071 -0.7293,4.6641 -0.4862,1.357 -1.1513,2.4949 -1.9954,3.4138 -0.8442,0.9189 -1.8379,1.6161 -2.9811,2.0916 -1.1434,0.4755 -2.3721,0.7132 -3.6864,0.7132 -1.2822,0 -2.4816,-0.235 -3.5982,-0.7052 -1.1166,-0.4701 -2.0889,-1.1593 -2.917,-2.0675 -0.8281,-0.9083 -1.4799,-2.0168 -1.9553,-3.3257 -0.4755,-1.3089 -0.7133,-2.8075 -0.7133,-4.4958 l 0,-11.2513 -2.2278,0 z"
           id="path4496"
           style="font-family:Arvo;-inkscape-font-specification:Arvo" />
        <path
           d="m 8686.4898,8878.4515 c 0,-0.9403 -0.171,-1.6455 -0.5129,-2.1156 -0.3419,-0.4702 -0.7186,-0.8308 -1.1299,-1.0819 -0.4114,-0.2511 -0.8629,-0.4434 -1.3544,-0.577 -0.4915,-0.1335 -0.983,-0.2003 -1.4745,-0.2003 -0.8121,0 -1.5226,0.094 -2.1317,0.2804 -0.609,0.187 -1.1139,0.4408 -1.5146,0.7613 -0.4007,0.3206 -0.7025,0.6946 -0.9055,1.122 -0.203,0.4274 -0.3046,0.8762 -0.3045,1.3463 -10e-5,0.7052 0.1255,1.2742 0.3766,1.7069 0.2511,0.4328 0.569,0.78 0.9536,1.0418 0.3847,0.2618 0.8094,0.4675 1.2742,0.6171 0.4648,0.1496 0.9109,0.2992 1.3383,0.4487 l 3.2376,1.0579 c 0.9723,0.3098 1.8298,0.6624 2.5724,1.0578 0.7426,0.3953 1.365,0.8628 1.8672,1.4024 0.5022,0.5396 0.8842,1.162 1.146,1.8672 0.2618,0.7052 0.3926,1.5226 0.3927,2.4522 -1e-4,1.0044 -0.2057,1.934 -0.6171,2.7888 -0.4114,0.8548 -0.9857,1.5974 -1.723,2.2278 -0.7372,0.6304 -1.6161,1.1246 -2.6365,1.4826 -1.0204,0.3579 -2.1397,0.5369 -3.3578,0.5369 -1.2501,0 -2.3186,-0.1416 -3.2055,-0.4247 -0.8868,-0.2832 -1.6321,-0.6625 -2.2358,-1.138 -0.6037,-0.4755 -1.0872,-1.0177 -1.4505,-1.6268 -0.3633,-0.609 -0.6464,-1.2341 -0.8495,-1.8752 l -1.2181,0 0,-2.7567 4.039,0 c 0,1.186 0.1255,2.0248 0.3766,2.5163 0.2511,0.4915 0.6011,0.9002 1.0498,1.2261 0.4488,0.3259 0.9831,0.5716 1.6028,0.7373 0.6197,0.1656 1.3036,0.2484 2.0515,0.2484 0.7266,0 1.381,-0.086 1.9634,-0.2565 0.5823,-0.1709 1.0792,-0.4193 1.4906,-0.7452 0.4113,-0.3259 0.7265,-0.7213 0.9456,-1.1861 0.219,-0.4648 0.3285,-0.991 0.3285,-1.5787 0,-0.6518 -0.1362,-1.2047 -0.4087,-1.6588 -0.2724,-0.4541 -0.6224,-0.8415 -1.0498,-1.162 -0.4274,-0.3206 -0.8948,-0.5824 -1.4024,-0.7854 -0.5075,-0.203 -0.9964,-0.3793 -1.4665,-0.5289 l -3.51,-0.9937 c -0.7694,-0.2351 -1.4719,-0.5342 -2.1076,-0.8975 -0.6358,-0.3633 -1.1807,-0.8068 -1.6349,-1.3303 -0.4541,-0.5236 -0.804,-1.1353 -1.0498,-1.8352 -0.2457,-0.6998 -0.3686,-1.5092 -0.3686,-2.4282 0,-0.9295 0.1817,-1.8004 0.5449,-2.6124 0.3633,-0.8121 0.8976,-1.5226 1.6028,-2.1317 0.7052,-0.609 1.568,-1.0872 2.5884,-1.4345 1.0205,-0.3472 2.1878,-0.5208 3.5021,-0.5209 0.8654,10e-5 1.6641,0.1016 2.3961,0.3046 0.7319,0.203 1.3944,0.4888 1.9874,0.8574 0.593,0.3687 1.1166,0.8121 1.5707,1.3303 0.4541,0.5183 0.8361,1.0872 1.146,1.707 l 1.202,0 0,2.7567 -3.9267,0 z"
           id="path4498"
           style="font-family:Arvo;-inkscape-font-specification:Arvo" />
      </g>
      <g
         transform="matrix(0.96000775,0,0,0.96000775,-30.423559,-255.74092)"
         id="g15433">
        <g
           transform="translate(0,39.301213)"
           id="g15435">
          <g
             transform="matrix(4.6968594,0,0,-4.6968594,-33789.036,48622.644)"
             id="flowRoot15437"
             style="font-size:40px;font-style:normal;font-variant:normal;font-weight:bold;font-stretch:normal;text-align:start;line-height:125%;letter-spacing:0px;word-spacing:0px;writing-mode:lr-tb;text-anchor:start;fill:#323232;fill-opacity:1;stroke:none;font-family:Arvo;-inkscape-font-specification:Arvo Bold">
            <path
               d="m 8543.7148,8882.4333 6.4454,0 0,1.6797 c 0.8593,-0.6641 1.7968,-1.1914 2.8125,-1.5821 1.0156,-0.3906 2.0637,-0.5859 3.1445,-0.5859 1.3281,0 2.5455,0.2474 3.6523,0.7422 1.1068,0.4948 2.0606,1.1914 2.8614,2.0898 0.8007,0.8985 1.4225,1.9759 1.8652,3.2324 0.4427,1.2566 0.664,2.6465 0.6641,4.17 -1e-4,1.6276 -0.2475,3.1119 -0.7422,4.4531 -0.4948,1.3411 -1.1817,2.4902 -2.0606,3.4472 -0.8789,0.9571 -1.9238,1.7025 -3.1347,2.2364 -1.211,0.5338 -2.5391,0.8008 -3.9844,0.8008 -1.0287,0 -1.9434,-0.1075 -2.7442,-0.3223 -0.8007,-0.2149 -1.5657,-0.4915 -2.2949,-0.8301 l 0,6.543 3.1641,0 0,3.3594 -9.6094,0 0,-3.3594 2.7734,0 0,-22.7149 -2.8125,0 z m 11.4454,2.7148 c -0.9376,0 -1.8392,0.1888 -2.7051,0.5664 -0.8659,0.3776 -1.6179,0.8985 -2.2559,1.5625 l 0,10.957 c 0.4297,0.4428 1.0449,0.8399 1.8457,1.1915 0.8008,0.3515 1.8001,0.5273 2.9981,0.5273 0.8333,0 1.6341,-0.1628 2.4023,-0.4883 0.7682,-0.3255 1.4453,-0.8105 2.0313,-1.4551 0.5859,-0.6445 1.0546,-1.442 1.4062,-2.3925 0.3516,-0.9506 0.5273,-2.0508 0.5274,-3.3008 -1e-4,-1.1458 -0.1661,-2.1615 -0.4981,-3.0469 -0.332,-0.8854 -0.7813,-1.6341 -1.3476,-2.2461 -0.5665,-0.612 -1.2273,-1.0774 -1.9825,-1.3965 -0.7552,-0.319 -1.5625,-0.4785 -2.4218,-0.4785 z"
               id="path4501"
               style="font-weight:normal;font-family:Arvo;-inkscape-font-specification:Arvo" />
          </g>
          <g
             transform="matrix(4.6968594,0,0,-4.6968594,-33681.034,48622.644)"
             id="flowRoot15445"
             style="font-size:40px;font-style:normal;font-variant:normal;font-weight:bold;font-stretch:normal;text-align:start;line-height:125%;letter-spacing:0px;word-spacing:0px;writing-mode:lr-tb;text-anchor:start;fill:#323232;fill-opacity:1;stroke:none;font-family:Arvo;-inkscape-font-specification:Arvo Bold">
            <path
               d="m 8556.1172,8899.3083 1.1523,0 -4.0234,-5 -3.9258,5 0.9961,0 0,3.3593 -6.7187,0 0,-3.3593 1.6406,0 6.1523,-7.168 -5.7812,-6.3477 -2.0508,0 0,-3.3593 6.7187,0 0,3.3593 -0.7617,0 3.7305,4.8047 3.7695,-4.8047 -0.9765,0 0,-3.3593 6.7187,0 0,3.3593 -1.7383,0 -5.7226,6.6016 6.0547,6.9141 1.4843,0 0,3.3593 -6.7187,0 z"
               id="path4504"
               style="font-weight:normal;font-family:Arvo;-inkscape-font-specification:Arvo" />
          </g>
        </g>
      </g>
    </g>
  </g>
</svg>
