<?xml version="1.0" encoding="UTF-8" standalone="no"?>
<!-- Created with Inkscape (http://www.inkscape.org/) -->

<svg
   xmlns:dc="http://purl.org/dc/elements/1.1/"
   xmlns:cc="http://creativecommons.org/ns#"
   xmlns:rdf="http://www.w3.org/1999/02/22-rdf-syntax-ns#"
   xmlns:svg="http://www.w3.org/2000/svg"
   xmlns="http://www.w3.org/2000/svg"
   xmlns:sodipodi="http://sodipodi.sourceforge.net/DTD/sodipodi-0.dtd"
   xmlns:inkscape="http://www.inkscape.org/namespaces/inkscape"
   width="210mm"
   height="297mm"
   viewBox="0 0 744.09448819 1052.3622047"
   id="svg2"
   version="1.1"
   inkscape:version="0.91 r13725"
   sodipodi:docname="pixls-atom.svg">
  <defs
     id="defs4" />
  <sodipodi:namedview
     id="base"
     pagecolor="#ffffff"
     bordercolor="#666666"
     borderopacity="1.0"
     inkscape:pageopacity="0.0"
     inkscape:pageshadow="2"
     inkscape:zoom="0.49497475"
     inkscape:cx="438.59354"
     inkscape:cy="402.87255"
     inkscape:document-units="px"
     inkscape:current-layer="layer1"
     showgrid="false"
     inkscape:snap-bbox="true"
     inkscape:snap-object-midpoints="true"
     inkscape:object-paths="true"
     inkscape:snap-bbox-midpoints="true"
     inkscape:window-width="1920"
     inkscape:window-height="1137"
     inkscape:window-x="-8"
     inkscape:window-y="-8"
     inkscape:window-maximized="1" />
  <metadata
     id="metadata7">
    <rdf:RDF>
      <cc:Work
         rdf:about="">
        <dc:format>image/svg+xml</dc:format>
        <dc:type
           rdf:resource="http://purl.org/dc/dcmitype/StillImage" />
        <dc:title />
      </cc:Work>
    </rdf:RDF>
  </metadata>
  <g
     inkscape:label="Layer 1"
     inkscape:groupmode="layer"
     id="layer1">
    <ellipse
       style="opacity:1;fill:none;fill-opacity:1;stroke:#323232;stroke-width:7.21199989;stroke-linecap:round;stroke-linejoin:miter;stroke-miterlimit:4;stroke-dasharray:none;stroke-dashoffset:0;stroke-opacity:1"
       id="path4138"
       cx="465.80405"
       cy="112.8214"
       rx="321.42856"
       ry="107.14286"
       transform="matrix(0.8660254,0.5,-0.5,0.8660254,0,0)" />
    <ellipse
       ry="107.14286"
       rx="321.42856"
       cy="459.80884"
       cx="135.1958"
       id="ellipse4144"
       style="opacity:1;fill:none;fill-opacity:1;stroke:#323232;stroke-width:7.21199989;stroke-linecap:round;stroke-linejoin:miter;stroke-miterlimit:4;stroke-dasharray:none;stroke-dashoffset:0;stroke-opacity:1"
       transform="matrix(0.8660254,-0.5,0.5,0.8660254,0,0)" />
    <rect
       style="opacity:1;fill:none;fill-opacity:1;stroke:#323232;stroke-width:7.21200037;stroke-linecap:round;stroke-linejoin:miter;stroke-miterlimit:4;stroke-dasharray:none;stroke-dashoffset:0;stroke-opacity:1"
       id="rect4148"
       width="85.575813"
       height="85.575813"
       x="304.19952"
       y="287.82031" />
    <rect
       y="132.15291"
       x="181.18712"
       height="45.575813"
       width="45.575813"
       id="rect4150"
       style="opacity:1;fill:#323232;fill-opacity:1;stroke:#323232;stroke-width:7.21200037;stroke-linecap:round;stroke-linejoin:miter;stroke-miterlimit:4;stroke-dasharray:none;stroke-dashoffset:0;stroke-opacity:1" />
    <rect
       style="opacity:1;fill:#323232;fill-opacity:1;stroke:#323232;stroke-width:7.21200037;stroke-linecap:round;stroke-linejoin:miter;stroke-miterlimit:4;stroke-dasharray:none;stroke-dashoffset:0;stroke-opacity:1"
       id="rect4152"
       width="45.575813"
       height="45.575813"
       x="563.59235"
       y="254.41576" />
    <circle
       style="opacity:1;fill:#ffffff;fill-opacity:1;stroke:#323232;stroke-width:7.21199989;stroke-linecap:round;stroke-linejoin:miter;stroke-miterlimit:4;stroke-dasharray:none;stroke-dashoffset:0;stroke-opacity:1"
       id="path4154"
       cx="1157.674"
       cy="345.38455"
       r="225.71428" />
    <rect
       y="272.59665"
       x="1084.886"
       height="145.57582"
       width="145.57582"
       id="rect4156"
       style="opacity:1;fill:#323232;fill-opacity:1;stroke:#323232;stroke-width:7.21199989;stroke-linecap:round;stroke-linejoin:miter;stroke-miterlimit:4;stroke-dasharray:none;stroke-dashoffset:0;stroke-opacity:1" />
    <rect
       y="96.88237"
       x="1134.886"
       height="45.575813"
       width="45.575813"
       id="rect4158"
       style="opacity:1;fill:#323232;fill-opacity:1;stroke:#323232;stroke-width:7.21200037;stroke-linecap:round;stroke-linejoin:miter;stroke-miterlimit:4;stroke-dasharray:none;stroke-dashoffset:0;stroke-opacity:1" />
    <ellipse
       transform="matrix(0.8660254,0.5,-0.5,0.8660254,0,0)"
       ry="107.14286"
       rx="321.42856"
       cy="-473.30649"
       cx="127.40294"
       id="ellipse4160"
       style="opacity:1;fill:none;fill-opacity:1;stroke:#323232;stroke-width:7.21199989;stroke-linecap:round;stroke-linejoin:miter;stroke-miterlimit:4;stroke-dasharray:none;stroke-dashoffset:0;stroke-opacity:1" />
    <rect
       y="-388.9819"
       x="304.19952"
       height="85.575813"
       width="85.575813"
       id="rect4162"
       style="opacity:1;fill:none;fill-opacity:1;stroke:#323232;stroke-width:7.21200037;stroke-linecap:round;stroke-linejoin:miter;stroke-miterlimit:4;stroke-dasharray:none;stroke-dashoffset:0;stroke-opacity:1" />
    <rect
       style="opacity:1;fill:#323232;fill-opacity:1;stroke:#323232;stroke-width:7.21200037;stroke-linecap:round;stroke-linejoin:miter;stroke-miterlimit:4;stroke-dasharray:none;stroke-dashoffset:0;stroke-opacity:1"
       id="rect4164"
       width="45.575813"
       height="45.575813"
       x="181.18712"
       y="-544.64929" />
    <ellipse
       style="opacity:1;fill:none;fill-opacity:1;stroke:#323232;stroke-width:6.00000002;stroke-linecap:round;stroke-linejoin:miter;stroke-miterlimit:4;stroke-dasharray:none;stroke-dashoffset:0;stroke-opacity:1"
       id="path4138-5"
       cx="712.33905"
       cy="526.70062"
       rx="321.42856"
       ry="107.14286"
       transform="matrix(0.8660254,0.5,-0.5,0.8660254,0,0)" />
    <ellipse
       ry="107.14286"
       rx="321.42856"
       cy="880.25403"
       cx="-99.966606"
       id="ellipse4144-9"
       style="opacity:1;fill:none;fill-opacity:1;stroke:#323232;stroke-width:6.00000002;stroke-linecap:round;stroke-linejoin:miter;stroke-miterlimit:4;stroke-dasharray:none;stroke-dashoffset:0;stroke-opacity:1"
       transform="matrix(0.8660254,-0.5,0.5,0.8660254,0,0)" />
    <rect
       y="613.85034"
       x="187.75308"
       height="45.575813"
       width="45.575813"
       id="rect4150-5"
       style="opacity:1;fill:#323232;fill-opacity:1;stroke:#323232;stroke-width:7.21200037;stroke-linecap:round;stroke-linejoin:miter;stroke-miterlimit:4;stroke-dasharray:none;stroke-dashoffset:0;stroke-opacity:1" />
    <rect
       style="opacity:1;fill:#323232;fill-opacity:1;stroke:#323232;stroke-width:7.21200037;stroke-linecap:round;stroke-linejoin:miter;stroke-miterlimit:4;stroke-dasharray:none;stroke-dashoffset:0;stroke-opacity:1"
       id="rect4152-5"
       width="45.575813"
       height="45.575813"
       x="570.15826"
       y="736.11316" />
    <path
       id="rect15376"
       d="m 308.49768,767.24993 90.1114,0 0,90.1114 -90.1114,0 z"
       style="fill:#ffffff;fill-opacity:1;stroke:#323232;stroke-width:6;stroke-linecap:square;stroke-linejoin:miter;stroke-miterlimit:4;stroke-dasharray:none;stroke-dashoffset:0;stroke-opacity:1"
       inkscape:connector-curvature="0" />
    <g
       inkscape:export-ydpi="16.16"
       inkscape:export-xdpi="16.16"
       inkscape:export-filename="C:\Users\patrickd\Dropbox\Public\pixlsus-metalsmith\src\images\px-logo-nourl.png"
       transform="matrix(0.36358247,0,0,-0.36358247,-1987.3711,3311.7273)"
       id="g15378">
      <g
         transform="translate(0,39.301213)"
         id="g15380">
        <g
           id="flowRoot15382"
           style="font-style:normal;font-variant:normal;font-weight:bold;font-stretch:normal;font-size:40px;line-height:125%;font-family:Arvo;-inkscape-font-specification:'Arvo Bold';text-align:start;letter-spacing:0px;word-spacing:0px;writing-mode:lr-tb;text-anchor:start;fill:#323232;fill-opacity:1;stroke:none"
           transform="matrix(4.6968594,0,0,-4.6968594,-33789.036,48622.644)">
          <path
             id="path5725"
             style="font-weight:normal;font-family:Arvo;-inkscape-font-specification:Arvo"
             d="m 8543.7148,8882.4333 6.4454,0 0,1.6797 c 0.8593,-0.6641 1.7968,-1.1914 2.8125,-1.5821 1.0156,-0.3906 2.0637,-0.5859 3.1445,-0.5859 1.3281,0 2.5455,0.2474 3.6523,0.7422 1.1068,0.4948 2.0606,1.1914 2.8614,2.0898 0.8007,0.8985 1.4225,1.9759 1.8652,3.2324 0.4427,1.2566 0.664,2.6465 0.6641,4.17 -1e-4,1.6276 -0.2475,3.1119 -0.7422,4.4531 -0.4948,1.3411 -1.1817,2.4902 -2.0606,3.4472 -0.8789,0.9571 -1.9238,1.7025 -3.1347,2.2364 -1.211,0.5338 -2.5391,0.8008 -3.9844,0.8008 -1.0287,0 -1.9434,-0.1075 -2.7442,-0.3223 -0.8007,-0.2149 -1.5657,-0.4915 -2.2949,-0.8301 l 0,6.543 3.1641,0 0,3.3594 -9.6094,0 0,-3.3594 2.7734,0 0,-22.7149 -2.8125,0 z m 11.4454,2.7148 c -0.9376,0 -1.8392,0.1888 -2.7051,0.5664 -0.8659,0.3776 -1.6179,0.8985 -2.2559,1.5625 l 0,10.957 c 0.4297,0.4428 1.0449,0.8399 1.8457,1.1915 0.8008,0.3515 1.8001,0.5273 2.9981,0.5273 0.8333,0 1.6341,-0.1628 2.4023,-0.4883 0.7682,-0.3255 1.4453,-0.8105 2.0313,-1.4551 0.5859,-0.6445 1.0546,-1.442 1.4062,-2.3925 0.3516,-0.9506 0.5273,-2.0508 0.5274,-3.3008 -1e-4,-1.1458 -0.1661,-2.1615 -0.4981,-3.0469 -0.332,-0.8854 -0.7813,-1.6341 -1.3476,-2.2461 -0.5665,-0.612 -1.2273,-1.0774 -1.9825,-1.3965 -0.7552,-0.319 -1.5625,-0.4785 -2.4218,-0.4785 z"
             inkscape:connector-curvature="0" />
        </g>
        <g
           id="flowRoot15390"
           style="font-style:normal;font-variant:normal;font-weight:bold;font-stretch:normal;font-size:40px;line-height:125%;font-family:Arvo;-inkscape-font-specification:'Arvo Bold';text-align:start;letter-spacing:0px;word-spacing:0px;writing-mode:lr-tb;text-anchor:start;fill:#323232;fill-opacity:1;stroke:none"
           transform="matrix(4.6968594,0,0,-4.6968594,-33681.034,48622.644)">
          <path
             id="path5728"
             style="font-weight:normal;font-family:Arvo;-inkscape-font-specification:Arvo"
             d="m 8556.1172,8899.3083 1.1523,0 -4.0234,-5 -3.9258,5 0.9961,0 0,3.3593 -6.7187,0 0,-3.3593 1.6406,0 6.1523,-7.168 -5.7812,-6.3477 -2.0508,0 0,-3.3593 6.7187,0 0,3.3593 -0.7617,0 3.7305,4.8047 3.7695,-4.8047 -0.9765,0 0,-3.3593 6.7187,0 0,3.3593 -1.7383,0 -5.7226,6.6016 6.0547,6.9141 1.4843,0 0,3.3593 -6.7187,0 z"
             inkscape:connector-curvature="0" />
        </g>
      </g>
    </g>
  </g>
</svg>
