<?xml version="1.0" encoding="UTF-8" standalone="no"?>
<svg xmlns:rdf="http://www.w3.org/1999/02/22-rdf-syntax-ns#" xmlns="http://www.w3.org/2000/svg" version="1.1" xmlns:cc="http://creativecommons.org/ns#" xmlns:dc="http://purl.org/dc/elements/1.1/" viewBox="0 0 250 250">
 <g transform="translate(0 -802.36)">
  <g transform="matrix(1.6327 0 0 1.6327 -104.52 469.64)">
   <g transform="translate(502.4 .0000032026)">
    <path d="m-436.17 206h148.71v148.71h-148.71z" stroke="#323232" stroke-linecap="square" stroke-width="4.417" fill="#789"/>
    <g fill="#323232" transform="matrix(.47259 0 0 .47259 -227.01 183.94)">
     <g transform="matrix(1.2695 0 0 -1.2695 -8458.9 8878.2)">
      <g fill="#323232" transform="translate(0 39.301)">
       <g transform="matrix(4.6969 0 0 -4.6969 -33789 48623)">
        <path fill="#323232" d="m8543.7 8885h6.4453v1.6797q1.2891-0.9961 2.8125-1.5821 1.5234-0.5859 3.1445-0.5859 1.9922 0 3.6524 0.7422 1.6601 0.7422 2.8515 2.0898 1.211 1.3477 1.875 3.2422 0.6641 1.875 0.6641 4.1602 0 2.4414-0.7422 4.4531t-2.0703 3.457q-1.3086 1.4258-3.125 2.2266t-3.9844 0.8008q-1.5429 0-2.7539-0.3321-1.1914-0.3125-2.2851-0.8203v6.543h3.164v3.3594h-9.6094v-3.3594h2.7735v-22.715h-2.8125v-3.3593zm11.445 2.7148q-1.4063 0-2.7148 0.5664-1.2891 0.5664-2.2461 1.5625v10.957q0.6445 0.6641 1.8359 1.1915 1.2109 0.5273 3.0078 0.5273 1.25 0 2.4024-0.4883 1.1523-0.4883 2.0312-1.4453 0.8789-0.9766 1.4063-2.4023 0.5273-1.4258 0.5273-3.3008 0-1.7188-0.5078-3.0469-0.4883-1.3281-1.3477-2.2461-0.8398-0.918-1.9726-1.3867-1.1328-0.4883-2.4219-0.4883z"/>
       </g>
       <g transform="matrix(4.6969 0 0 -4.6969 -33681 48623)">
        <path fill="#323232" d="m8556.1 8901.9h1.1524l-4.0235-5-3.9257 5h0.996v3.3593h-6.7187v-3.3593h1.6406l6.1524-7.168-5.7813-6.3477h-2.0508v-3.3593h6.7188v3.3593h-0.7617l3.7304 4.8047 3.7696-4.8047h-0.9766v-3.3593h6.7188v3.3593h-1.7383l-5.7227 6.6016 6.0547 6.9141h1.4844v3.3593h-6.7188v-3.3593z"/>
       </g>
      </g>
     </g>
     <g transform="matrix(.99520 0 0 .99520 -501.35 -94.667)">
      <g transform="matrix(.99999 0 0 .99999 .0020278 94.515)">
       <path d="m90.975 286.92h17.032q2.834 0 5.1956 0.75017 2.3894 0.72238 4.112 2.1671 1.7504 1.417 2.695 3.5563 0.97244 2.1394 0.97244 4.9178 0 2.3061-0.94466 4.3621-0.94465 2.0282-2.6672 3.5563t-4.1398 2.4172q-2.3894 0.88909-5.3345 0.88909h-7.4739v14.725h4.2232v4.7788h-13.67v-4.7788h4.0009v-32.535h-4.0009v-4.8066zm9.4465 4.8066v13.253h7.585q1.5837 0 2.8895-0.41676 1.3336-0.44454 2.2783-1.2781 0.97244-0.83352 1.5003-2.0838 0.55568-1.2503 0.55568-2.8895 0-3.1118-1.8893-4.8344-1.8893-1.7504-6.0291-1.7504h-6.8904z"/>
       <path d="m126.32 286.92h13.447v4.8066h-4.0009v32.535h4.0009v4.7788h-13.447v-4.7788h4.0009v-32.535h-4.0009v-4.8066z"/>
       <path d="m170.19 286.92h13.67v4.8066h-3.1118l-11.391 15.809 11.892 16.726h2.6117v4.7788h-13.67v-4.7788h5.14l-9.002-12.531-9.0576 12.531h4.9178v4.7788h-13.67v-4.7788h2.7506l12.003-16.754-11.336-15.781h-3.4174v-4.8066h13.67v4.8066h-4.0564l8.1962 11.53 8.2796-11.53h-4.4176v-4.8066z"/>
       <path d="m189.44 286.92h13.67v4.8066h-4.2232v32.535h14.531q0.44455 0 0.88909-0.19449 0.44454-0.22227 0.80573-0.55568t0.58346-0.75016q0.22228-0.44455 0.22228-0.88909v-5.3067h5.2789v12.475h-31.757v-4.7788h4.0009v-32.535h-4.0009v-4.8066z"/>
       <path d="m247.04 298.37q0-2.445-0.88908-3.6675-0.88909-1.2225-1.9727-1.8615-1.0558-0.66681-2.3338-1.0002-1.2781-0.36119-2.5561-0.36119-2.1116 0-3.6953 0.50011-1.5837 0.47233-2.6395 1.3058-1.028 0.83351-1.5559 1.9449t-0.5279 2.3338q0 1.8337 0.63903 2.9729 0.66682 1.1114 1.667 1.806 1.0002 0.66681 2.1949 1.0558 1.2225 0.38897 2.3338 0.77794l5.6124 1.8337q2.5283 0.80574 4.4454 1.8337 1.9449 1.028 3.2507 2.445 1.3058 1.3892 1.9727 3.2229 0.6946 1.8337 0.6946 4.2509 0 2.6117-1.0836 4.8344-1.0558 2.2227-2.9729 3.862-1.9171 1.6392-4.5844 2.5839-2.6395 0.91687-5.8068 0.91687-3.2507 0-5.5568-0.75017-2.3061-0.72238-3.8898-1.9449-1.5559-1.2503-2.5006-2.834-0.94465-1.5837-1.4726-3.2507h-2.1116v-4.7788h7.0015q0 3.084 0.63903 4.3621 0.66681 1.2781 1.8337 2.1394 1.1669 0.83351 2.7784 1.278 1.6115 0.41676 3.5563 0.41676 1.8893 0 3.3896-0.44454 1.5281-0.44454 2.5839-1.2781 1.0836-0.8613 1.6392-2.056 0.58346-1.2225 0.58346-2.7506 0-1.6948-0.72238-2.8618-0.6946-1.1947-1.806-2.0282-1.1114-0.83352-2.445-1.3614-1.3058-0.5279-2.5283-0.91687l-6.0847-1.7226q-2.0004-0.61125-3.6675-1.5559-1.6392-0.94465-2.834-2.3061-1.1669-1.3614-1.806-3.1674-0.63903-1.8337-0.63903-4.2232 0-2.4172 0.94466-4.5288 0.94465-2.1116 2.7784-3.6953 1.8337-1.5837 4.4732-2.4728 2.6673-0.91686 6.0847-0.91686 2.2505 0 4.1398 0.52789 1.9171 0.52789 3.4452 1.5003 1.5559 0.94465 2.7228 2.3061 1.1947 1.3336 2.0004 2.9451h2.0838v4.7788h-6.8071z"/>
      </g>
      <g transform="matrix(.99999 0 0 .99999 180.82 94.515)">
       <path d="m90.142 286.92h13.642v4.8066h-4.3065v19.615q0 3.5286 0.77794 6.0291 0.80574 2.4728 2.1949 4.0564 1.417 1.5559 3.3341 2.2783 1.9449 0.72238 4.2509 0.72238 2.3894 0 4.3898-0.63903t3.4174-2.1394q1.4448-1.5281 2.2227-4.0287 0.80573-2.5283 0.80573-6.2792v-19.615h-4.5566v-4.8066h13.642v4.8066h-3.7508v19.004q0 4.5566-1.2781 8.0851-1.2503 3.5286-3.4452 5.918t-5.1678 3.6397q-2.9729 1.2225-6.3903 1.2225-3.3341 0-6.2514-1.2225-2.8895-1.2225-5.0567-3.5841-2.1394-2.3616-3.3896-5.7513-1.2225-3.4174-1.2225-7.8073v-19.504h-3.862v-4.8066z"/>
       <path d="m155.68 298.37q0-2.445-0.88908-3.6675-0.88909-1.2225-1.9727-1.8615-1.0558-0.66681-2.3338-1.0002-1.2781-0.36119-2.5561-0.36119-2.1116 0-3.6953 0.50011-1.5837 0.47233-2.6395 1.3058-1.028 0.83351-1.5559 1.9449-0.52789 1.1114-0.52789 2.3338 0 1.8337 0.63903 2.9729 0.66681 1.1114 1.667 1.806 1.0002 0.66681 2.1949 1.0558 1.2225 0.38897 2.3338 0.77794l5.6124 1.8337q2.5283 0.80574 4.4454 1.8337 1.9449 1.028 3.2507 2.445 1.3058 1.3892 1.9727 3.2229 0.69459 1.8337 0.69459 4.2509 0 2.6117-1.0836 4.8344-1.0558 2.2227-2.9729 3.862-1.9171 1.6392-4.5843 2.5839-2.6395 0.91687-5.8068 0.91687-3.2507 0-5.5568-0.75017-2.3061-0.72238-3.8897-1.9449-1.5559-1.2503-2.5006-2.834-0.94466-1.5837-1.4726-3.2507h-2.1116v-4.7788h7.0016q0 3.084 0.63903 4.3621 0.66681 1.2781 1.8337 2.1394 1.1669 0.83351 2.7784 1.278 1.6115 0.41676 3.5563 0.41676 1.8893 0 3.3896-0.44454 1.5281-0.44454 2.5839-1.2781 1.0836-0.8613 1.6392-2.056 0.58346-1.2225 0.58346-2.7506 0-1.6948-0.72238-2.8618-0.6946-1.1947-1.806-2.0282-1.1114-0.83352-2.445-1.3614-1.3058-0.5279-2.5283-0.91687l-6.0847-1.7226q-2.0004-0.61125-3.6675-1.5559-1.6392-0.94465-2.834-2.3061-1.1669-1.3614-1.806-3.1674-0.63903-1.8337-0.63903-4.2232 0-2.4172 0.94465-4.5288t2.7784-3.6953q1.8337-1.5837 4.4732-2.4728 2.6672-0.91686 6.0847-0.91686 2.2505 0 4.1398 0.52789 1.9171 0.52789 3.4452 1.5003 1.5559 0.94465 2.7228 2.3061 1.1947 1.3336 2.0004 2.9451h2.0838v4.7788h-6.8071z"/>
      </g>
      <path style="color:#000000" d="m261.25 416.61h7.2238v7.2793h-7.2238z"/>
     </g>
    </g>
   </g>
  </g>
 </g>
 <style>.style0{fill:	none;stroke:	#323232;stroke-width:	8.83399391;stroke-linecap:	square;}.style1{font-size:	32.82439423px;line-height:	125%;font-family:	Arvo;-inkscape-font-specification:	Arvo;text-align:	start;letter-spacing:	0px;word-spacing:	0px;writing-mode:	lr-tb;text-anchor:	start;fill:	#323232;}.style2{font-size:	32.82439423px;line-height:	125%;font-family:	Arvo;-inkscape-font-specification:	Arvo;text-align:	start;writing-mode:	lr-tb;text-anchor:	start;}.style3{font-weight:	bold;font-size:	40px;line-height:	125%;font-family:	Arvo;-inkscape-font-specification:	&apos;Arvo Bold&apos;;text-align:	start;letter-spacing:	0px;word-spacing:	0px;writing-mode:	lr-tb;text-anchor:	start;fill:	#323232;}.style4{font-size:	40px;line-height:	125%;font-family:	Arvo;-inkscape-font-specification:	Arvo;text-align:	start;writing-mode:	lr-tb;text-anchor:	start;}</style>
</svg>
