<?xml version="1.0" encoding="UTF-8" standalone="no"?>
<!-- Created with Inkscape (http://www.inkscape.org/) -->

<svg
   xmlns:dc="http://purl.org/dc/elements/1.1/"
   xmlns:cc="http://creativecommons.org/ns#"
   xmlns:rdf="http://www.w3.org/1999/02/22-rdf-syntax-ns#"
   xmlns:svg="http://www.w3.org/2000/svg"
   xmlns="http://www.w3.org/2000/svg"
   xmlns:sodipodi="http://sodipodi.sourceforge.net/DTD/sodipodi-0.dtd"
   xmlns:inkscape="http://www.inkscape.org/namespaces/inkscape"
   width="306.24826"
   height="306.24826"
   id="svg4412"
   version="1.1"
   inkscape:version="0.48.4 r9939"
   sodipodi:docname="pixls.us-logo-nourl.svg">
  <defs
     id="defs4414" />
  <sodipodi:namedview
     id="base"
     pagecolor="#ffffff"
     bordercolor="#666666"
     borderopacity="1.0"
     inkscape:pageopacity="0.0"
     inkscape:pageshadow="2"
     inkscape:zoom="0.35"
     inkscape:cx="228.12412"
     inkscape:cy="95.981267"
     inkscape:document-units="px"
     inkscape:current-layer="layer1"
     showgrid="false"
     fit-margin-top="0"
     fit-margin-left="0"
     fit-margin-right="0"
     fit-margin-bottom="0"
     inkscape:window-width="705"
     inkscape:window-height="522"
     inkscape:window-x="894"
     inkscape:window-y="187"
     inkscape:window-maximized="0" />
  <metadata
     id="metadata4417">
    <rdf:RDF>
      <cc:Work
         rdf:about="">
        <dc:format>image/svg+xml</dc:format>
        <dc:type
           rdf:resource="http://purl.org/dc/dcmitype/StillImage" />
        <dc:title></dc:title>
      </cc:Work>
    </rdf:RDF>
  </metadata>
  <g
     inkscape:label="Layer 1"
     inkscape:groupmode="layer"
     id="layer1"
     transform="translate(-146.87588,-322.09518)">
    <path
       style="fill:#778899;fill-opacity:1;stroke:#323232;stroke-width:8.83399391;stroke-linecap:square;stroke-linejoin:miter;stroke-miterlimit:4;stroke-dashoffset:0;stroke-opacity:1"
       d="m 151.29288,326.51218 297.41427,0 0,297.41427 -297.41427,0 z"
       id="rect15376" />
    <g
       id="g15378"
       transform="matrix(1.2000097,0,0,-1.2000097,-7426.2584,8724.6001)"
       inkscape:export-filename="C:\Users\patrickd\Dropbox\Public\pixlsus-metalsmith\src\images\px-logo-nourl.png"
       inkscape:export-xdpi="16.16"
       inkscape:export-ydpi="16.16">
      <g
         id="g15380"
         transform="translate(0,39.301213)">
        <g
           transform="matrix(4.6968594,0,0,-4.6968594,-33789.036,48622.644)"
           style="font-size:40px;font-style:normal;font-variant:normal;font-weight:bold;font-stretch:normal;text-align:start;line-height:125%;letter-spacing:0px;word-spacing:0px;writing-mode:lr-tb;text-anchor:start;fill:#323232;fill-opacity:1;stroke:none;font-family:Arvo;-inkscape-font-specification:Arvo Bold"
           id="flowRoot15382">
          <path
             d="m 8543.7148,8882.4333 6.4454,0 0,1.6797 c 0.8593,-0.6641 1.7968,-1.1914 2.8125,-1.5821 1.0156,-0.3906 2.0637,-0.5859 3.1445,-0.5859 1.3281,0 2.5455,0.2474 3.6523,0.7422 1.1068,0.4948 2.0606,1.1914 2.8614,2.0898 0.8007,0.8985 1.4225,1.9759 1.8652,3.2324 0.4427,1.2566 0.664,2.6465 0.6641,4.17 -1e-4,1.6276 -0.2475,3.1119 -0.7422,4.4531 -0.4948,1.3411 -1.1817,2.4902 -2.0606,3.4472 -0.8789,0.9571 -1.9238,1.7025 -3.1347,2.2364 -1.211,0.5338 -2.5391,0.8008 -3.9844,0.8008 -1.0287,0 -1.9434,-0.1075 -2.7442,-0.3223 -0.8007,-0.2149 -1.5657,-0.4915 -2.2949,-0.8301 l 0,6.543 3.1641,0 0,3.3594 -9.6094,0 0,-3.3594 2.7734,0 0,-22.7149 -2.8125,0 z m 11.4454,2.7148 c -0.9376,0 -1.8392,0.1888 -2.7051,0.5664 -0.8659,0.3776 -1.6179,0.8985 -2.2559,1.5625 l 0,10.957 c 0.4297,0.4428 1.0449,0.8399 1.8457,1.1915 0.8008,0.3515 1.8001,0.5273 2.9981,0.5273 0.8333,0 1.6341,-0.1628 2.4023,-0.4883 0.7682,-0.3255 1.4453,-0.8105 2.0313,-1.4551 0.5859,-0.6445 1.0546,-1.442 1.4062,-2.3925 0.3516,-0.9506 0.5273,-2.0508 0.5274,-3.3008 -1e-4,-1.1458 -0.1661,-2.1615 -0.4981,-3.0469 -0.332,-0.8854 -0.7813,-1.6341 -1.3476,-2.2461 -0.5665,-0.612 -1.2273,-1.0774 -1.9825,-1.3965 -0.7552,-0.319 -1.5625,-0.4785 -2.4218,-0.4785 z"
             style="font-weight:normal;font-family:Arvo;-inkscape-font-specification:Arvo"
             id="path5725" />
        </g>
        <g
           transform="matrix(4.6968594,0,0,-4.6968594,-33681.034,48622.644)"
           style="font-size:40px;font-style:normal;font-variant:normal;font-weight:bold;font-stretch:normal;text-align:start;line-height:125%;letter-spacing:0px;word-spacing:0px;writing-mode:lr-tb;text-anchor:start;fill:#323232;fill-opacity:1;stroke:none;font-family:Arvo;-inkscape-font-specification:Arvo Bold"
           id="flowRoot15390">
          <path
             d="m 8556.1172,8899.3083 1.1523,0 -4.0234,-5 -3.9258,5 0.9961,0 0,3.3593 -6.7187,0 0,-3.3593 1.6406,0 6.1523,-7.168 -5.7812,-6.3477 -2.0508,0 0,-3.3593 6.7187,0 0,3.3593 -0.7617,0 3.7305,4.8047 3.7695,-4.8047 -0.9765,0 0,-3.3593 6.7187,0 0,3.3593 -1.7383,0 -5.7226,6.6016 6.0547,6.9141 1.4843,0 0,3.3593 -6.7187,0 z"
             style="font-weight:normal;font-family:Arvo;-inkscape-font-specification:Arvo"
             id="path5728" />
        </g>
      </g>
    </g>
  </g>
</svg>
